<?xml version="1.0" encoding="utf-8" standalone="no"?>
<!DOCTYPE svg PUBLIC "-//W3C//DTD SVG 1.1//EN"
  "http://www.w3.org/Graphics/SVG/1.1/DTD/svg11.dtd">
<svg xmlns:xlink="http://www.w3.org/1999/xlink" width="518.4pt" height="198pt" viewBox="0 0 518.4 198" xmlns="http://www.w3.org/2000/svg" version="1.1">
 <metadata>
  <rdf:RDF xmlns:dc="http://purl.org/dc/elements/1.1/" xmlns:cc="http://creativecommons.org/ns#" xmlns:rdf="http://www.w3.org/1999/02/22-rdf-syntax-ns#">
   <cc:Work>
    <dc:type rdf:resource="http://purl.org/dc/dcmitype/StillImage"/>
    <dc:date>2026-06-26T15:34:14.026603</dc:date>
    <dc:format>image/svg+xml</dc:format>
    <dc:creator>
     <cc:Agent>
      <dc:title>Matplotlib v3.10.8, https://matplotlib.org/</dc:title>
     </cc:Agent>
    </dc:creator>
   </cc:Work>
  </rdf:RDF>
 </metadata>
 <defs>
  <style type="text/css">*{stroke-linejoin: round; stroke-linecap: butt}</style>
 </defs>
 <g id="figure_1">
  <g id="patch_1">
   <path d="M 0 198 
L 518.4 198 
L 518.4 0 
L 0 0 
z
" style="fill: #ffffff"/>
  </g>
  <g id="axes_1">
   <g id="patch_2">
    <path d="M 37.3248 176.22 
L 94.569502 176.22 
L 94.569502 35.64 
L 37.3248 35.64 
z
" style="fill: #ffffff"/>
   </g>
   <g id="line2d_1">
    <path d="M 37.3248 165.225765 
L 94.569502 165.225765 
" clip-path="url(#pd784de7f1f)" style="fill: none; stroke: #eeeeee; stroke-width: 0.5; stroke-linecap: square"/>
   </g>
   <g id="matplotlib.axis_1">
    <g id="xtick_1">
     <g id="line2d_2">
      <defs>
       <path id="m7879774cb7" d="M 0 0 
L 0 2 
" style="stroke: #000000; stroke-width: 0.8"/>
      </defs>
      <g>
       <use xlink:href="#m7879774cb7" x="52.239129" y="176.22" style="stroke: #000000; stroke-width: 0.8"/>
      </g>
     </g>
     <g id="text_1">
      <text style="font-size: 7px; font-family: 'Arial'; text-anchor: middle" x="52.239129" y="186.730469" transform="rotate(-0 52.239129 186.730469)">LocMin</text>
     </g>
    </g>
    <g id="xtick_2">
     <g id="line2d_3">
      <g>
       <use xlink:href="#m7879774cb7" x="79.655174" y="176.22" style="stroke: #000000; stroke-width: 0.8"/>
      </g>
     </g>
     <g id="text_2">
      <text style="font-size: 7px; font-family: 'Arial'; text-anchor: middle" x="79.655174" y="186.730469" transform="rotate(-0 79.655174 186.730469)">SNIP</text>
     </g>
    </g>
   </g>
   <g id="matplotlib.axis_2">
    <g id="ytick_1">
     <g id="line2d_4">
      <path d="M 37.3248 165.225765 
L 94.569502 165.225765 
" clip-path="url(#pd784de7f1f)" style="fill: none; stroke: #eeeeee; stroke-width: 0.5; stroke-linecap: square"/>
     </g>
     <g id="line2d_5">
      <defs>
       <path id="m35c51214cd" d="M 0 0 
L -2 0 
" style="stroke: #000000; stroke-width: 0.8"/>
      </defs>
      <g>
       <use xlink:href="#m35c51214cd" x="37.3248" y="165.225765" style="stroke: #000000; stroke-width: 0.8"/>
      </g>
     </g>
     <g id="text_3">
      <text style="font-size: 7px; font-family: 'Arial'; text-anchor: end" x="31.8248" y="167.731" transform="rotate(-0 31.8248 167.731)">1</text>
     </g>
    </g>
    <g id="ytick_2">
     <g id="line2d_6">
      <path d="M 37.3248 94.250327 
L 94.569502 94.250327 
" clip-path="url(#pd784de7f1f)" style="fill: none; stroke: #eeeeee; stroke-width: 0.5; stroke-linecap: square"/>
     </g>
     <g id="line2d_7">
      <g>
       <use xlink:href="#m35c51214cd" x="37.3248" y="94.250327" style="stroke: #000000; stroke-width: 0.8"/>
      </g>
     </g>
     <g id="text_4">
      <text style="font-size: 7px; font-family: 'Arial'; text-anchor: end" x="31.8248" y="96.755561" transform="rotate(-0 31.8248 96.755561)">10</text>
     </g>
    </g>
    <g id="text_5">
     <text style="font-size: 8px; font-family: 'Arial'; text-anchor: middle" x="18.355737" y="105.93" transform="rotate(-90 18.355737 105.93)">Relative ratio (×)</text>
    </g>
   </g>
   <g id="patch_3">
    <path d="M 41.272711 71140.664371 
L 46.75592 71140.664371 
L 46.75592 109.503049 
L 41.272711 109.503049 
z
" clip-path="url(#pd784de7f1f)" style="fill: #cfe8f7; stroke: #ffffff; stroke-width: 0.4; stroke-linejoin: miter"/>
   </g>
   <g id="patch_4">
    <path d="M 68.688756 71140.664371 
L 74.171965 71140.664371 
L 74.171965 95.461356 
L 68.688756 95.461356 
z
" clip-path="url(#pd784de7f1f)" style="fill: #cfe8f7; stroke: #ffffff; stroke-width: 0.4; stroke-linejoin: miter"/>
   </g>
   <g id="patch_5">
    <path d="M 46.75592 71140.664371 
L 52.239129 71140.664371 
L 52.239129 104.21451 
L 46.75592 104.21451 
z
" clip-path="url(#pd784de7f1f)" style="fill: #8fcdec; stroke: #ffffff; stroke-width: 0.4; stroke-linejoin: miter"/>
   </g>
   <g id="patch_6">
    <path d="M 74.171965 71140.664371 
L 79.655174 71140.664371 
L 79.655174 107.129528 
L 74.171965 107.129528 
z
" clip-path="url(#pd784de7f1f)" style="fill: #8fcdec; stroke: #ffffff; stroke-width: 0.4; stroke-linejoin: miter"/>
   </g>
   <g id="patch_7">
    <path d="M 52.239129 71140.664371 
L 57.722338 71140.664371 
L 57.722338 74.219271 
L 52.239129 74.219271 
z
" clip-path="url(#pd784de7f1f)" style="fill: #4fa8dc; stroke: #ffffff; stroke-width: 0.4; stroke-linejoin: miter"/>
   </g>
   <g id="patch_8">
    <path d="M 79.655174 71140.664371 
L 85.138383 71140.664371 
L 85.138383 74.219328 
L 79.655174 74.219328 
z
" clip-path="url(#pd784de7f1f)" style="fill: #4fa8dc; stroke: #ffffff; stroke-width: 0.4; stroke-linejoin: miter"/>
   </g>
   <g id="patch_9">
    <path d="M 57.722338 71140.664371 
L 63.205547 71140.664371 
L 63.205547 66.383667 
L 57.722338 66.383667 
z
" clip-path="url(#pd784de7f1f)" style="fill: #2e73b0; stroke: #ffffff; stroke-width: 0.4; stroke-linejoin: miter"/>
   </g>
   <g id="patch_10">
    <path d="M 85.138383 71140.664371 
L 90.621592 71140.664371 
L 90.621592 64.159216 
L 85.138383 64.159216 
z
" clip-path="url(#pd784de7f1f)" style="fill: #2e73b0; stroke: #ffffff; stroke-width: 0.4; stroke-linejoin: miter"/>
   </g>
   <g id="text_6">
    <text style="font-weight: 700; font-size: 8.5px; font-family: 'Arial'; text-anchor: middle" x="65.947151" y="31.64" transform="rotate(-0 65.947151 31.64)">Baseline</text>
   </g>
   <g id="patch_11">
    <path d="M 37.3248 176.22 
L 37.3248 35.64 
" style="fill: none; stroke: #000000; stroke-width: 0.7; stroke-linejoin: miter; stroke-linecap: square"/>
   </g>
   <g id="patch_12">
    <path d="M 37.3248 176.22 
L 94.569502 176.22 
" style="fill: none; stroke: #000000; stroke-width: 0.7; stroke-linejoin: miter; stroke-linecap: square"/>
   </g>
  </g>
  <g id="axes_2">
   <g id="patch_13">
    <path d="M 119.871661 176.22 
L 205.738715 176.22 
L 205.738715 35.64 
L 119.871661 35.64 
z
" style="fill: #ffffff"/>
   </g>
   <g id="line2d_8">
    <path d="M 119.871661 165.225765 
L 205.738715 165.225765 
" clip-path="url(#p4dd4a4f299)" style="fill: none; stroke: #eeeeee; stroke-width: 0.5; stroke-linecap: square"/>
   </g>
   <g id="matplotlib.axis_3">
    <g id="xtick_3">
     <g id="line2d_9">
      <g>
       <use xlink:href="#m7879774cb7" x="136.368287" y="176.22" style="stroke: #000000; stroke-width: 0.8"/>
      </g>
     </g>
     <g id="text_7">
      <text style="font-size: 7px; font-family: 'Arial'; text-anchor: middle" x="136.368287" y="186.730469" transform="rotate(-0 136.368287 186.730469)">TIC</text>
     </g>
    </g>
    <g id="xtick_4">
     <g id="line2d_10">
      <g>
       <use xlink:href="#m7879774cb7" x="162.805188" y="176.22" style="stroke: #000000; stroke-width: 0.8"/>
      </g>
     </g>
     <g id="text_8">
      <text style="font-size: 7px; font-family: 'Arial'; text-anchor: middle" x="162.805188" y="186.730469" transform="rotate(-0 162.805188 186.730469)">RMS</text>
     </g>
    </g>
    <g id="xtick_5">
     <g id="line2d_11">
      <g>
       <use xlink:href="#m7879774cb7" x="189.242089" y="176.22" style="stroke: #000000; stroke-width: 0.8"/>
      </g>
     </g>
     <g id="text_9">
      <text style="font-size: 7px; font-family: 'Arial'; text-anchor: middle" x="189.242089" y="186.730469" transform="rotate(-0 189.242089 186.730469)">Ref</text>
     </g>
    </g>
   </g>
   <g id="matplotlib.axis_4">
    <g id="ytick_3">
     <g id="line2d_12">
      <path d="M 119.871661 165.225765 
L 205.738715 165.225765 
" clip-path="url(#p4dd4a4f299)" style="fill: none; stroke: #eeeeee; stroke-width: 0.5; stroke-linecap: square"/>
     </g>
     <g id="line2d_13">
      <g>
       <use xlink:href="#m35c51214cd" x="119.871661" y="165.225765" style="stroke: #000000; stroke-width: 0.8"/>
      </g>
     </g>
     <g id="text_10">
      <text style="font-size: 7px; font-family: 'Arial'; text-anchor: end" x="114.371661" y="167.731" transform="rotate(-0 114.371661 167.731)">1</text>
     </g>
    </g>
    <g id="ytick_4">
     <g id="line2d_14">
      <path d="M 119.871661 94.250327 
L 205.738715 94.250327 
" clip-path="url(#p4dd4a4f299)" style="fill: none; stroke: #eeeeee; stroke-width: 0.5; stroke-linecap: square"/>
     </g>
     <g id="line2d_15">
      <g>
       <use xlink:href="#m35c51214cd" x="119.871661" y="94.250327" style="stroke: #000000; stroke-width: 0.8"/>
      </g>
     </g>
     <g id="text_11">
      <text style="font-size: 7px; font-family: 'Arial'; text-anchor: end" x="114.371661" y="96.755561" transform="rotate(-0 114.371661 96.755561)">10</text>
     </g>
    </g>
   </g>
   <g id="patch_14">
    <path d="M 125.793527 71140.664371 
L 131.080907 71140.664371 
L 131.080907 112.379682 
L 125.793527 112.379682 
z
" clip-path="url(#p4dd4a4f299)" style="fill: #cfe8f7; stroke: #ffffff; stroke-width: 0.4; stroke-linejoin: miter"/>
   </g>
   <g id="patch_15">
    <path d="M 152.230428 71140.664371 
L 157.517808 71140.664371 
L 157.517808 85.552193 
L 152.230428 85.552193 
z
" clip-path="url(#p4dd4a4f299)" style="fill: #cfe8f7; stroke: #ffffff; stroke-width: 0.4; stroke-linejoin: miter"/>
   </g>
   <g id="patch_16">
    <path d="M 178.667328 71140.664371 
L 183.954708 71140.664371 
L 183.954708 92.335008 
L 178.667328 92.335008 
z
" clip-path="url(#p4dd4a4f299)" style="fill: #cfe8f7; stroke: #ffffff; stroke-width: 0.4; stroke-linejoin: miter"/>
   </g>
   <g id="patch_17">
    <path d="M 131.080907 71140.664371 
L 136.368287 71140.664371 
L 136.368287 97.573196 
L 131.080907 97.573196 
z
" clip-path="url(#p4dd4a4f299)" style="fill: #8fcdec; stroke: #ffffff; stroke-width: 0.4; stroke-linejoin: miter"/>
   </g>
   <g id="patch_18">
    <path d="M 157.517808 71140.664371 
L 162.805188 71140.664371 
L 162.805188 95.092821 
L 157.517808 95.092821 
z
" clip-path="url(#p4dd4a4f299)" style="fill: #8fcdec; stroke: #ffffff; stroke-width: 0.4; stroke-linejoin: miter"/>
   </g>
   <g id="patch_19">
    <path d="M 183.954708 71140.664371 
L 189.242089 71140.664371 
L 189.242089 98.68535 
L 183.954708 98.68535 
z
" clip-path="url(#p4dd4a4f299)" style="fill: #8fcdec; stroke: #ffffff; stroke-width: 0.4; stroke-linejoin: miter"/>
   </g>
   <g id="patch_20">
    <path d="M 136.368287 71140.664371 
L 141.655667 71140.664371 
L 141.655667 48.173193 
L 136.368287 48.173193 
z
" clip-path="url(#p4dd4a4f299)" style="fill: #4fa8dc; stroke: #ffffff; stroke-width: 0.4; stroke-linejoin: miter"/>
   </g>
   <g id="patch_21">
    <path d="M 162.805188 71140.664371 
L 168.092568 71140.664371 
L 168.092568 48.138154 
L 162.805188 48.138154 
z
" clip-path="url(#p4dd4a4f299)" style="fill: #4fa8dc; stroke: #ffffff; stroke-width: 0.4; stroke-linejoin: miter"/>
   </g>
   <g id="patch_22">
    <path d="M 189.242089 71140.664371 
L 194.529469 71140.664371 
L 194.529469 48.173271 
L 189.242089 48.173271 
z
" clip-path="url(#p4dd4a4f299)" style="fill: #4fa8dc; stroke: #ffffff; stroke-width: 0.4; stroke-linejoin: miter"/>
   </g>
   <g id="patch_23">
    <path d="M 141.655667 71140.664371 
L 146.943047 71140.664371 
L 146.943047 65.277809 
L 141.655667 65.277809 
z
" clip-path="url(#p4dd4a4f299)" style="fill: #2e73b0; stroke: #ffffff; stroke-width: 0.4; stroke-linejoin: miter"/>
   </g>
   <g id="patch_24">
    <path d="M 168.092568 71140.664371 
L 173.379948 71140.664371 
L 173.379948 61.954237 
L 168.092568 61.954237 
z
" clip-path="url(#p4dd4a4f299)" style="fill: #2e73b0; stroke: #ffffff; stroke-width: 0.4; stroke-linejoin: miter"/>
   </g>
   <g id="patch_25">
    <path d="M 194.529469 71140.664371 
L 199.816849 71140.664371 
L 199.816849 66.27352 
L 194.529469 66.27352 
z
" clip-path="url(#p4dd4a4f299)" style="fill: #2e73b0; stroke: #ffffff; stroke-width: 0.4; stroke-linejoin: miter"/>
   </g>
   <g id="text_12">
    <text style="font-weight: 700; font-size: 8.5px; font-family: 'Arial'; text-anchor: middle" x="162.805188" y="31.64" transform="rotate(-0 162.805188 31.64)">Normalization</text>
   </g>
   <g id="patch_26">
    <path d="M 119.871661 176.22 
L 119.871661 35.64 
" style="fill: none; stroke: #000000; stroke-width: 0.7; stroke-linejoin: miter; stroke-linecap: square"/>
   </g>
   <g id="patch_27">
    <path d="M 119.871661 176.22 
L 205.738715 176.22 
" style="fill: none; stroke: #000000; stroke-width: 0.7; stroke-linejoin: miter; stroke-linecap: square"/>
   </g>
  </g>
  <g id="axes_3">
   <g id="patch_28">
    <path d="M 231.040873 176.22 
L 259.663224 176.22 
L 259.663224 35.64 
L 231.040873 35.64 
z
" style="fill: #ffffff"/>
   </g>
   <g id="line2d_16">
    <path d="M 231.040873 165.225765 
L 259.663224 165.225765 
" clip-path="url(#pbfaf9feba3)" style="fill: none; stroke: #eeeeee; stroke-width: 0.5; stroke-linecap: square"/>
   </g>
   <g id="matplotlib.axis_5">
    <g id="xtick_6">
     <g id="line2d_17">
      <g>
       <use xlink:href="#m7879774cb7" x="245.352049" y="176.22" style="stroke: #000000; stroke-width: 0.8"/>
      </g>
     </g>
     <g id="text_13">
      <text style="font-size: 7px; font-family: 'Arial'; text-anchor: middle" x="245.352049" y="186.730469" transform="rotate(-0 245.352049 186.730469)">Default</text>
     </g>
    </g>
   </g>
   <g id="matplotlib.axis_6">
    <g id="ytick_5">
     <g id="line2d_18">
      <path d="M 231.040873 165.225765 
L 259.663224 165.225765 
" clip-path="url(#pbfaf9feba3)" style="fill: none; stroke: #eeeeee; stroke-width: 0.5; stroke-linecap: square"/>
     </g>
     <g id="line2d_19">
      <g>
       <use xlink:href="#m35c51214cd" x="231.040873" y="165.225765" style="stroke: #000000; stroke-width: 0.8"/>
      </g>
     </g>
     <g id="text_14">
      <text style="font-size: 7px; font-family: 'Arial'; text-anchor: end" x="225.540873" y="167.731" transform="rotate(-0 225.540873 167.731)">1</text>
     </g>
    </g>
    <g id="ytick_6">
     <g id="line2d_20">
      <path d="M 231.040873 94.250327 
L 259.663224 94.250327 
" clip-path="url(#pbfaf9feba3)" style="fill: none; stroke: #eeeeee; stroke-width: 0.5; stroke-linecap: square"/>
     </g>
     <g id="line2d_21">
      <g>
       <use xlink:href="#m35c51214cd" x="231.040873" y="94.250327" style="stroke: #000000; stroke-width: 0.8"/>
      </g>
     </g>
     <g id="text_15">
      <text style="font-size: 7px; font-family: 'Arial'; text-anchor: end" x="225.540873" y="96.755561" transform="rotate(-0 225.540873 96.755561)">10</text>
     </g>
    </g>
   </g>
   <g id="patch_29">
    <path d="M 233.014828 71140.664371 
L 239.183439 71140.664371 
L 239.183439 129.530095 
L 233.014828 129.530095 
z
" clip-path="url(#pbfaf9feba3)" style="fill: #cfe8f7; stroke: #ffffff; stroke-width: 0.4; stroke-linejoin: miter"/>
   </g>
   <g id="patch_30">
    <path d="M 239.183439 71140.664371 
L 245.352049 71140.664371 
L 245.352049 92.077559 
L 239.183439 92.077559 
z
" clip-path="url(#pbfaf9feba3)" style="fill: #8fcdec; stroke: #ffffff; stroke-width: 0.4; stroke-linejoin: miter"/>
   </g>
   <g id="patch_31">
    <path d="M 245.352049 71140.664371 
L 251.520659 71140.664371 
L 251.520659 77.460644 
L 245.352049 77.460644 
z
" clip-path="url(#pbfaf9feba3)" style="fill: #4fa8dc; stroke: #ffffff; stroke-width: 0.4; stroke-linejoin: miter"/>
   </g>
   <g id="patch_32">
    <path d="M 251.520659 71140.664371 
L 257.689269 71140.664371 
L 257.689269 144.218601 
L 251.520659 144.218601 
z
" clip-path="url(#pbfaf9feba3)" style="fill: #2e73b0; stroke: #ffffff; stroke-width: 0.4; stroke-linejoin: miter"/>
   </g>
   <g id="text_16">
    <text style="font-weight: 700; font-size: 8.5px; font-family: 'Arial'; text-anchor: middle" x="245.352049" y="31.64" transform="rotate(-0 245.352049 31.64)">Alignment</text>
   </g>
   <g id="patch_33">
    <path d="M 231.040873 176.22 
L 231.040873 35.64 
" style="fill: none; stroke: #000000; stroke-width: 0.7; stroke-linejoin: miter; stroke-linecap: square"/>
   </g>
   <g id="patch_34">
    <path d="M 231.040873 176.22 
L 259.663224 176.22 
" style="fill: none; stroke: #000000; stroke-width: 0.7; stroke-linejoin: miter; stroke-linecap: square"/>
   </g>
  </g>
  <g id="axes_4">
   <g id="patch_35">
    <path d="M 284.965383 176.22 
L 370.832437 176.22 
L 370.832437 35.64 
L 284.965383 35.64 
z
" style="fill: #ffffff"/>
   </g>
   <g id="line2d_22">
    <path d="M 284.965383 165.225765 
L 370.832437 165.225765 
" clip-path="url(#pcc9d6ec1ea)" style="fill: none; stroke: #eeeeee; stroke-width: 0.5; stroke-linecap: square"/>
   </g>
   <g id="matplotlib.axis_7">
    <g id="xtick_7">
     <g id="line2d_23">
      <g>
       <use xlink:href="#m7879774cb7" x="301.462009" y="176.22" style="stroke: #000000; stroke-width: 0.8"/>
      </g>
     </g>
     <g id="text_17">
      <text style="font-size: 7px; font-family: 'Arial'; text-anchor: middle" x="301.462009" y="186.730469" transform="rotate(-0 301.462009 186.730469)">MA</text>
     </g>
    </g>
    <g id="xtick_8">
     <g id="line2d_24">
      <g>
       <use xlink:href="#m7879774cb7" x="327.89891" y="176.22" style="stroke: #000000; stroke-width: 0.8"/>
      </g>
     </g>
     <g id="text_18">
      <text style="font-size: 7px; font-family: 'Arial'; text-anchor: middle" x="327.89891" y="186.730469" transform="rotate(-0 327.89891 186.730469)">Gauss</text>
     </g>
    </g>
    <g id="xtick_9">
     <g id="line2d_25">
      <g>
       <use xlink:href="#m7879774cb7" x="354.33581" y="176.22" style="stroke: #000000; stroke-width: 0.8"/>
      </g>
     </g>
     <g id="text_19">
      <text style="font-size: 7px; font-family: 'Arial'; text-anchor: middle" x="354.33581" y="186.730469" transform="rotate(-0 354.33581 186.730469)">SG</text>
     </g>
    </g>
   </g>
   <g id="matplotlib.axis_8">
    <g id="ytick_7">
     <g id="line2d_26">
      <path d="M 284.965383 165.225765 
L 370.832437 165.225765 
" clip-path="url(#pcc9d6ec1ea)" style="fill: none; stroke: #eeeeee; stroke-width: 0.5; stroke-linecap: square"/>
     </g>
     <g id="line2d_27">
      <g>
       <use xlink:href="#m35c51214cd" x="284.965383" y="165.225765" style="stroke: #000000; stroke-width: 0.8"/>
      </g>
     </g>
     <g id="text_20">
      <text style="font-size: 7px; font-family: 'Arial'; text-anchor: end" x="279.465383" y="167.731" transform="rotate(-0 279.465383 167.731)">1</text>
     </g>
    </g>
    <g id="ytick_8">
     <g id="line2d_28">
      <path d="M 284.965383 94.250327 
L 370.832437 94.250327 
" clip-path="url(#pcc9d6ec1ea)" style="fill: none; stroke: #eeeeee; stroke-width: 0.5; stroke-linecap: square"/>
     </g>
     <g id="line2d_29">
      <g>
       <use xlink:href="#m35c51214cd" x="284.965383" y="94.250327" style="stroke: #000000; stroke-width: 0.8"/>
      </g>
     </g>
     <g id="text_21">
      <text style="font-size: 7px; font-family: 'Arial'; text-anchor: end" x="279.465383" y="96.755561" transform="rotate(-0 279.465383 96.755561)">10</text>
     </g>
    </g>
   </g>
   <g id="patch_36">
    <path d="M 290.887249 71140.664371 
L 296.174629 71140.664371 
L 296.174629 115.389174 
L 290.887249 115.389174 
z
" clip-path="url(#pcc9d6ec1ea)" style="fill: #cfe8f7; stroke: #ffffff; stroke-width: 0.4; stroke-linejoin: miter"/>
   </g>
   <g id="patch_37">
    <path d="M 317.324149 71140.664371 
L 322.61153 71140.664371 
L 322.61153 93.040753 
L 317.324149 93.040753 
z
" clip-path="url(#pcc9d6ec1ea)" style="fill: #cfe8f7; stroke: #ffffff; stroke-width: 0.4; stroke-linejoin: miter"/>
   </g>
   <g id="patch_38">
    <path d="M 343.76105 71140.664371 
L 349.04843 71140.664371 
L 349.04843 90.995068 
L 343.76105 90.995068 
z
" clip-path="url(#pcc9d6ec1ea)" style="fill: #cfe8f7; stroke: #ffffff; stroke-width: 0.4; stroke-linejoin: miter"/>
   </g>
   <g id="patch_39">
    <path d="M 296.174629 71140.664371 
L 301.462009 71140.664371 
L 301.462009 107.220501 
L 296.174629 107.220501 
z
" clip-path="url(#pcc9d6ec1ea)" style="fill: #8fcdec; stroke: #ffffff; stroke-width: 0.4; stroke-linejoin: miter"/>
   </g>
   <g id="patch_40">
    <path d="M 322.61153 71140.664371 
L 327.89891 71140.664371 
L 327.89891 108.329315 
L 322.61153 108.329315 
z
" clip-path="url(#pcc9d6ec1ea)" style="fill: #8fcdec; stroke: #ffffff; stroke-width: 0.4; stroke-linejoin: miter"/>
   </g>
   <g id="patch_41">
    <path d="M 349.04843 71140.664371 
L 354.33581 71140.664371 
L 354.33581 107.261122 
L 349.04843 107.261122 
z
" clip-path="url(#pcc9d6ec1ea)" style="fill: #8fcdec; stroke: #ffffff; stroke-width: 0.4; stroke-linejoin: miter"/>
   </g>
   <g id="patch_42">
    <path d="M 301.462009 71140.664371 
L 306.749389 71140.664371 
L 306.749389 48.166177 
L 301.462009 48.166177 
z
" clip-path="url(#pcc9d6ec1ea)" style="fill: #4fa8dc; stroke: #ffffff; stroke-width: 0.4; stroke-linejoin: miter"/>
   </g>
   <g id="patch_43">
    <path d="M 327.89891 71140.664371 
L 333.18629 71140.664371 
L 333.18629 48.243321 
L 327.89891 48.243321 
z
" clip-path="url(#pcc9d6ec1ea)" style="fill: #4fa8dc; stroke: #ffffff; stroke-width: 0.4; stroke-linejoin: miter"/>
   </g>
   <g id="patch_44">
    <path d="M 354.33581 71140.664371 
L 359.623191 71140.664371 
L 359.623191 48.243342 
L 354.33581 48.243342 
z
" clip-path="url(#pcc9d6ec1ea)" style="fill: #4fa8dc; stroke: #ffffff; stroke-width: 0.4; stroke-linejoin: miter"/>
   </g>
   <g id="patch_45">
    <path d="M 306.749389 71140.664371 
L 312.036769 71140.664371 
L 312.036769 62.904444 
L 306.749389 62.904444 
z
" clip-path="url(#pcc9d6ec1ea)" style="fill: #2e73b0; stroke: #ffffff; stroke-width: 0.4; stroke-linejoin: miter"/>
   </g>
   <g id="patch_46">
    <path d="M 333.18629 71140.664371 
L 338.47367 71140.664371 
L 338.47367 64.585578 
L 333.18629 64.585578 
z
" clip-path="url(#pcc9d6ec1ea)" style="fill: #2e73b0; stroke: #ffffff; stroke-width: 0.4; stroke-linejoin: miter"/>
   </g>
   <g id="patch_47">
    <path d="M 359.623191 71140.664371 
L 364.910571 71140.664371 
L 364.910571 64.360163 
L 359.623191 64.360163 
z
" clip-path="url(#pcc9d6ec1ea)" style="fill: #2e73b0; stroke: #ffffff; stroke-width: 0.4; stroke-linejoin: miter"/>
   </g>
   <g id="text_22">
    <text style="font-weight: 700; font-size: 8.5px; font-family: 'Arial'; text-anchor: middle" x="327.89891" y="31.64" transform="rotate(-0 327.89891 31.64)">Denoising</text>
   </g>
   <g id="patch_48">
    <path d="M 284.965383 176.22 
L 284.965383 35.64 
" style="fill: none; stroke: #000000; stroke-width: 0.7; stroke-linejoin: miter; stroke-linecap: square"/>
   </g>
   <g id="patch_49">
    <path d="M 284.965383 176.22 
L 370.832437 176.22 
" style="fill: none; stroke: #000000; stroke-width: 0.7; stroke-linejoin: miter; stroke-linecap: square"/>
   </g>
  </g>
  <g id="axes_5">
   <g id="patch_50">
    <path d="M 396.134595 176.22 
L 510.624 176.22 
L 510.624 35.64 
L 396.134595 35.64 
z
" style="fill: #ffffff"/>
   </g>
   <g id="line2d_30">
    <path d="M 396.134595 165.225765 
L 510.624 165.225765 
" clip-path="url(#p857d1acb42)" style="fill: none; stroke: #eeeeee; stroke-width: 0.5; stroke-linecap: square"/>
   </g>
   <g id="matplotlib.axis_9">
    <g id="xtick_10">
     <g id="line2d_31">
      <g>
       <use xlink:href="#m7879774cb7" x="414.419654" y="176.22" style="stroke: #000000; stroke-width: 0.8"/>
      </g>
     </g>
     <g id="text_23">
      <text style="font-size: 7px; font-family: 'Arial'; text-anchor: middle" x="414.419654" y="186.730469" transform="rotate(-0 414.419654 186.730469)">Quantile</text>
     </g>
    </g>
    <g id="xtick_11">
     <g id="line2d_32">
      <g>
       <use xlink:href="#m7879774cb7" x="440.39275" y="176.22" style="stroke: #000000; stroke-width: 0.8"/>
      </g>
     </g>
     <g id="text_24">
      <text style="font-size: 7px; font-family: 'Arial'; text-anchor: middle" x="440.39275" y="186.730469" transform="rotate(-0 440.39275 186.730469)">Diff</text>
     </g>
    </g>
    <g id="xtick_12">
     <g id="line2d_33">
      <g>
       <use xlink:href="#m7879774cb7" x="466.365845" y="176.22" style="stroke: #000000; stroke-width: 0.8"/>
      </g>
     </g>
     <g id="text_25">
      <text style="font-size: 7px; font-family: 'Arial'; text-anchor: middle" x="466.365845" y="186.730469" transform="rotate(-0 466.365845 186.730469)">SD</text>
     </g>
    </g>
    <g id="xtick_13">
     <g id="line2d_34">
      <g>
       <use xlink:href="#m7879774cb7" x="492.338941" y="176.22" style="stroke: #000000; stroke-width: 0.8"/>
      </g>
     </g>
     <g id="text_26">
      <text style="font-size: 7px; font-family: 'Arial'; text-anchor: middle" x="492.338941" y="186.730469" transform="rotate(-0 492.338941 186.730469)">MAD</text>
     </g>
    </g>
   </g>
   <g id="matplotlib.axis_10">
    <g id="ytick_9">
     <g id="line2d_35">
      <path d="M 396.134595 165.225765 
L 510.624 165.225765 
" clip-path="url(#p857d1acb42)" style="fill: none; stroke: #eeeeee; stroke-width: 0.5; stroke-linecap: square"/>
     </g>
     <g id="line2d_36">
      <g>
       <use xlink:href="#m35c51214cd" x="396.134595" y="165.225765" style="stroke: #000000; stroke-width: 0.8"/>
      </g>
     </g>
     <g id="text_27">
      <text style="font-size: 7px; font-family: 'Arial'; text-anchor: end" x="390.634595" y="167.731" transform="rotate(-0 390.634595 167.731)">1</text>
     </g>
    </g>
    <g id="ytick_10">
     <g id="line2d_37">
      <path d="M 396.134595 94.250327 
L 510.624 94.250327 
" clip-path="url(#p857d1acb42)" style="fill: none; stroke: #eeeeee; stroke-width: 0.5; stroke-linecap: square"/>
     </g>
     <g id="line2d_38">
      <g>
       <use xlink:href="#m35c51214cd" x="396.134595" y="94.250327" style="stroke: #000000; stroke-width: 0.8"/>
      </g>
     </g>
     <g id="text_28">
      <text style="font-size: 7px; font-family: 'Arial'; text-anchor: end" x="390.634595" y="96.755561" transform="rotate(-0 390.634595 96.755561)">10</text>
     </g>
    </g>
   </g>
   <g id="patch_51">
    <path d="M 404.030416 71140.664371 
L 409.225035 71140.664371 
L 409.225035 154.06938 
L 404.030416 154.06938 
z
" clip-path="url(#p857d1acb42)" style="fill: #cfe8f7; stroke: #ffffff; stroke-width: 0.4; stroke-linejoin: miter"/>
   </g>
   <g id="patch_52">
    <path d="M 430.003512 71140.664371 
L 435.198131 71140.664371 
L 435.198131 119.856168 
L 430.003512 119.856168 
z
" clip-path="url(#p857d1acb42)" style="fill: #cfe8f7; stroke: #ffffff; stroke-width: 0.4; stroke-linejoin: miter"/>
   </g>
   <g id="patch_53">
    <path d="M 455.976607 71140.664371 
L 461.171226 71140.664371 
L 461.171226 108.860607 
L 455.976607 108.860607 
z
" clip-path="url(#p857d1acb42)" style="fill: #cfe8f7; stroke: #ffffff; stroke-width: 0.4; stroke-linejoin: miter"/>
   </g>
   <g id="patch_54">
    <path d="M 481.949703 71140.664371 
L 487.144322 71140.664371 
L 487.144322 111.616567 
L 481.949703 111.616567 
z
" clip-path="url(#p857d1acb42)" style="fill: #cfe8f7; stroke: #ffffff; stroke-width: 0.4; stroke-linejoin: miter"/>
   </g>
   <g id="patch_55">
    <path d="M 409.225035 71140.664371 
L 414.419654 71140.664371 
L 414.419654 131.476876 
L 409.225035 131.476876 
z
" clip-path="url(#p857d1acb42)" style="fill: #8fcdec; stroke: #ffffff; stroke-width: 0.4; stroke-linejoin: miter"/>
   </g>
   <g id="patch_56">
    <path d="M 435.198131 71140.664371 
L 440.39275 71140.664371 
L 440.39275 122.605122 
L 435.198131 122.605122 
z
" clip-path="url(#p857d1acb42)" style="fill: #8fcdec; stroke: #ffffff; stroke-width: 0.4; stroke-linejoin: miter"/>
   </g>
   <g id="patch_57">
    <path d="M 461.171226 71140.664371 
L 466.365845 71140.664371 
L 466.365845 130.149866 
L 461.171226 130.149866 
z
" clip-path="url(#p857d1acb42)" style="fill: #8fcdec; stroke: #ffffff; stroke-width: 0.4; stroke-linejoin: miter"/>
   </g>
   <g id="patch_58">
    <path d="M 487.144322 71140.664371 
L 492.338941 71140.664371 
L 492.338941 92.707852 
L 487.144322 92.707852 
z
" clip-path="url(#p857d1acb42)" style="fill: #8fcdec; stroke: #ffffff; stroke-width: 0.4; stroke-linejoin: miter"/>
   </g>
   <g id="patch_59">
    <path d="M 414.419654 71140.664371 
L 419.614273 71140.664371 
L 419.614273 130.962294 
L 414.419654 130.962294 
z
" clip-path="url(#p857d1acb42)" style="fill: #4fa8dc; stroke: #ffffff; stroke-width: 0.4; stroke-linejoin: miter"/>
   </g>
   <g id="patch_60">
    <path d="M 440.39275 71140.664371 
L 445.587369 71140.664371 
L 445.587369 138.890508 
L 440.39275 138.890508 
z
" clip-path="url(#p857d1acb42)" style="fill: #4fa8dc; stroke: #ffffff; stroke-width: 0.4; stroke-linejoin: miter"/>
   </g>
   <g id="patch_61">
    <path d="M 466.365845 71140.664371 
L 471.560464 71140.664371 
L 471.560464 101.378474 
L 466.365845 101.378474 
z
" clip-path="url(#p857d1acb42)" style="fill: #4fa8dc; stroke: #ffffff; stroke-width: 0.4; stroke-linejoin: miter"/>
   </g>
   <g id="patch_62">
    <path d="M 492.338941 71140.664371 
L 497.53356 71140.664371 
L 497.53356 100.01067 
L 492.338941 100.01067 
z
" clip-path="url(#p857d1acb42)" style="fill: #4fa8dc; stroke: #ffffff; stroke-width: 0.4; stroke-linejoin: miter"/>
   </g>
   <g id="patch_63">
    <path d="M 419.614273 71140.664371 
L 424.808892 71140.664371 
L 424.808892 114.030295 
L 419.614273 114.030295 
z
" clip-path="url(#p857d1acb42)" style="fill: #2e73b0; stroke: #ffffff; stroke-width: 0.4; stroke-linejoin: miter"/>
   </g>
   <g id="patch_64">
    <path d="M 445.587369 71140.664371 
L 450.781988 71140.664371 
L 450.781988 110.050778 
L 445.587369 110.050778 
z
" clip-path="url(#p857d1acb42)" style="fill: #2e73b0; stroke: #ffffff; stroke-width: 0.4; stroke-linejoin: miter"/>
   </g>
   <g id="patch_65">
    <path d="M 471.560464 71140.664371 
L 476.755083 71140.664371 
L 476.755083 112.509175 
L 471.560464 112.509175 
z
" clip-path="url(#p857d1acb42)" style="fill: #2e73b0; stroke: #ffffff; stroke-width: 0.4; stroke-linejoin: miter"/>
   </g>
   <g id="patch_66">
    <path d="M 497.53356 71140.664371 
L 502.728179 71140.664371 
L 502.728179 91.080758 
L 497.53356 91.080758 
z
" clip-path="url(#p857d1acb42)" style="fill: #2e73b0; stroke: #ffffff; stroke-width: 0.4; stroke-linejoin: miter"/>
   </g>
   <g id="text_29">
    <text style="font-weight: 700; font-size: 8.5px; font-family: 'Arial'; text-anchor: middle" x="453.379298" y="31.64" transform="rotate(-0 453.379298 31.64)">Peak Picking</text>
   </g>
   <g id="patch_67">
    <path d="M 396.134595 176.22 
L 396.134595 35.64 
" style="fill: none; stroke: #000000; stroke-width: 0.7; stroke-linejoin: miter; stroke-linecap: square"/>
   </g>
   <g id="patch_68">
    <path d="M 396.134595 176.22 
L 510.624 176.22 
" style="fill: none; stroke: #000000; stroke-width: 0.7; stroke-linejoin: miter; stroke-linecap: square"/>
   </g>
  </g>
  <g id="legend_1">
   <g id="patch_69">
    <path d="M 180.70875 11.93625 
L 189.50875 11.93625 
L 189.50875 6.33625 
L 180.70875 6.33625 
z
" style="fill: #cfe8f7; stroke: #ffffff; stroke-linejoin: miter"/>
   </g>
   <g id="text_30">
    <text style="font-size: 8px; font-family: 'Arial'; text-anchor: start" x="195.90875" y="11.93625" transform="rotate(-0 195.90875 11.93625)">Min</text>
   </g>
   <g id="patch_70">
    <path d="M 221.59875 11.93625 
L 230.39875 11.93625 
L 230.39875 6.33625 
L 221.59875 6.33625 
z
" style="fill: #8fcdec; stroke: #ffffff; stroke-linejoin: miter"/>
   </g>
   <g id="text_31">
    <text style="font-size: 8px; font-family: 'Arial'; text-anchor: start" x="236.79875" y="11.93625" transform="rotate(-0 236.79875 11.93625)">Mid</text>
   </g>
   <g id="patch_71">
    <path d="M 262.48875 11.93625 
L 271.28875 11.93625 
L 271.28875 6.33625 
L 262.48875 6.33625 
z
" style="fill: #4fa8dc; stroke: #ffffff; stroke-linejoin: miter"/>
   </g>
   <g id="text_32">
    <text style="font-size: 8px; font-family: 'Arial'; text-anchor: start" x="277.68875" y="11.93625" transform="rotate(-0 277.68875 11.93625)">Max</text>
   </g>
   <g id="patch_72">
    <path d="M 305.60125 11.93625 
L 314.40125 11.93625 
L 314.40125 6.33625 
L 305.60125 6.33625 
z
" style="fill: #2e73b0; stroke: #ffffff; stroke-linejoin: miter"/>
   </g>
   <g id="text_33">
    <text style="font-size: 8px; font-family: 'Arial'; text-anchor: start" x="320.80125" y="11.93625" transform="rotate(-0 320.80125 11.93625)">Ultra</text>
   </g>
  </g>
 </g>
 <defs>
  <clipPath id="pd784de7f1f">
   <rect x="37.3248" y="35.64" width="57.244702" height="140.58"/>
  </clipPath>
  <clipPath id="p4dd4a4f299">
   <rect x="119.871661" y="35.64" width="85.867054" height="140.58"/>
  </clipPath>
  <clipPath id="pbfaf9feba3">
   <rect x="231.040873" y="35.64" width="28.622351" height="140.58"/>
  </clipPath>
  <clipPath id="pcc9d6ec1ea">
   <rect x="284.965383" y="35.64" width="85.867054" height="140.58"/>
  </clipPath>
  <clipPath id="p857d1acb42">
   <rect x="396.134595" y="35.64" width="114.489405" height="140.58"/>
  </clipPath>
 </defs>
</svg>
