<?xml version="1.0" encoding="utf-8" standalone="no"?>
<!DOCTYPE svg PUBLIC "-//W3C//DTD SVG 1.1//EN"
  "http://www.w3.org/Graphics/SVG/1.1/DTD/svg11.dtd">
<svg xmlns:xlink="http://www.w3.org/1999/xlink" width="518.4pt" height="198pt" viewBox="0 0 518.4 198" xmlns="http://www.w3.org/2000/svg" version="1.1">
 <metadata>
  <rdf:RDF xmlns:dc="http://purl.org/dc/elements/1.1/" xmlns:cc="http://creativecommons.org/ns#" xmlns:rdf="http://www.w3.org/1999/02/22-rdf-syntax-ns#">
   <cc:Work>
    <dc:type rdf:resource="http://purl.org/dc/dcmitype/StillImage"/>
    <dc:date>2026-06-25T15:46:13.220623</dc:date>
    <dc:format>image/svg+xml</dc:format>
    <dc:creator>
     <cc:Agent>
      <dc:title>Matplotlib v3.10.8, https://matplotlib.org/</dc:title>
     </cc:Agent>
    </dc:creator>
   </cc:Work>
  </rdf:RDF>
 </metadata>
 <defs>
  <style type="text/css">*{stroke-linejoin: round; stroke-linecap: butt}</style>
 </defs>
 <g id="figure_1">
  <g id="patch_1">
   <path d="M 0 198 
L 518.4 198 
L 518.4 0 
L 0 0 
z
" style="fill: #ffffff"/>
  </g>
  <g id="axes_1">
   <g id="patch_2">
    <path d="M 37.3248 176.22 
L 94.569502 176.22 
L 94.569502 35.64 
L 37.3248 35.64 
z
" style="fill: #ffffff"/>
   </g>
   <g id="line2d_1">
    <path d="M 37.3248 153.654968 
L 94.569502 153.654968 
" clip-path="url(#pb7e65e9701)" style="fill: none; stroke: #eeeeee; stroke-width: 0.5; stroke-linecap: square"/>
   </g>
   <g id="matplotlib.axis_1">
    <g id="xtick_1">
     <g id="line2d_2">
      <defs>
       <path id="m5478bd6856" d="M 0 0 
L 0 2 
" style="stroke: #000000; stroke-width: 0.8"/>
      </defs>
      <g>
       <use xlink:href="#m5478bd6856" x="52.239129" y="176.22" style="stroke: #000000; stroke-width: 0.8"/>
      </g>
     </g>
     <g id="text_1">
      <text style="font-size: 7px; font-family: 'Arial'; text-anchor: middle" x="52.239129" y="186.730469" transform="rotate(-0 52.239129 186.730469)">LocMin</text>
     </g>
    </g>
    <g id="xtick_2">
     <g id="line2d_3">
      <g>
       <use xlink:href="#m5478bd6856" x="79.655174" y="176.22" style="stroke: #000000; stroke-width: 0.8"/>
      </g>
     </g>
     <g id="text_2">
      <text style="font-size: 7px; font-family: 'Arial'; text-anchor: middle" x="79.655174" y="186.730469" transform="rotate(-0 79.655174 186.730469)">SNIP</text>
     </g>
    </g>
   </g>
   <g id="matplotlib.axis_2">
    <g id="ytick_1">
     <g id="line2d_4">
      <path d="M 37.3248 153.654968 
L 94.569502 153.654968 
" clip-path="url(#pb7e65e9701)" style="fill: none; stroke: #eeeeee; stroke-width: 0.5; stroke-linecap: square"/>
     </g>
     <g id="line2d_5">
      <defs>
       <path id="m7c88a07d7b" d="M 0 0 
L -2 0 
" style="stroke: #000000; stroke-width: 0.8"/>
      </defs>
      <g>
       <use xlink:href="#m7c88a07d7b" x="37.3248" y="153.654968" style="stroke: #000000; stroke-width: 0.8"/>
      </g>
     </g>
     <g id="text_3">
      <text style="font-size: 7px; font-family: 'Arial'; text-anchor: end" x="31.8248" y="156.160202" transform="rotate(-0 31.8248 156.160202)">1</text>
     </g>
    </g>
    <g id="ytick_2">
     <g id="line2d_6">
      <path d="M 37.3248 87.524062 
L 94.569502 87.524062 
" clip-path="url(#pb7e65e9701)" style="fill: none; stroke: #eeeeee; stroke-width: 0.5; stroke-linecap: square"/>
     </g>
     <g id="line2d_7">
      <g>
       <use xlink:href="#m7c88a07d7b" x="37.3248" y="87.524062" style="stroke: #000000; stroke-width: 0.8"/>
      </g>
     </g>
     <g id="text_4">
      <text style="font-size: 7px; font-family: 'Arial'; text-anchor: end" x="31.8248" y="90.029296" transform="rotate(-0 31.8248 90.029296)">10</text>
     </g>
    </g>
    <g id="text_5">
     <text style="font-size: 8px; font-family: 'Arial'; text-anchor: middle" x="18.355737" y="105.93" transform="rotate(-90 18.355737 105.93)">Relative ratio (×)</text>
    </g>
   </g>
   <g id="patch_3">
    <path d="M 41.272711 66284.561377 
L 46.75592 66284.561377 
L 46.75592 129.5219 
L 41.272711 129.5219 
z
" clip-path="url(#pb7e65e9701)" style="fill: #cfe8f7; stroke: #ffffff; stroke-width: 0.4; stroke-linejoin: miter"/>
   </g>
   <g id="patch_4">
    <path d="M 68.688756 66284.561377 
L 74.171965 66284.561377 
L 74.171965 154.370755 
L 68.688756 154.370755 
z
" clip-path="url(#pb7e65e9701)" style="fill: #cfe8f7; stroke: #e8a0a0; stroke-width: 0.8; stroke-linejoin: miter"/>
   </g>
   <g id="patch_5">
    <path d="M 46.75592 66284.561377 
L 52.239129 66284.561377 
L 52.239129 127.362337 
L 46.75592 127.362337 
z
" clip-path="url(#pb7e65e9701)" style="fill: #8fcdec; stroke: #ffffff; stroke-width: 0.4; stroke-linejoin: miter"/>
   </g>
   <g id="patch_6">
    <path d="M 74.171965 66284.561377 
L 79.655174 66284.561377 
L 79.655174 153.549941 
L 74.171965 153.549941 
z
" clip-path="url(#pb7e65e9701)" style="fill: #8fcdec; stroke: #ffffff; stroke-width: 0.4; stroke-linejoin: miter"/>
   </g>
   <g id="patch_7">
    <path d="M 52.239129 66284.561377 
L 57.722338 66284.561377 
L 57.722338 64.5874 
L 52.239129 64.5874 
z
" clip-path="url(#pb7e65e9701)" style="fill: #4fa8dc; stroke: #ffffff; stroke-width: 0.4; stroke-linejoin: miter"/>
   </g>
   <g id="patch_8">
    <path d="M 79.655174 66284.561377 
L 85.138383 66284.561377 
L 85.138383 114.250491 
L 79.655174 114.250491 
z
" clip-path="url(#pb7e65e9701)" style="fill: #4fa8dc; stroke: #ffffff; stroke-width: 0.4; stroke-linejoin: miter"/>
   </g>
   <g id="patch_9">
    <path d="M 57.722338 66284.561377 
L 63.205547 66284.561377 
L 63.205547 120.396887 
L 57.722338 120.396887 
z
" clip-path="url(#pb7e65e9701)" style="fill: #2e73b0; stroke: #ffffff; stroke-width: 0.4; stroke-linejoin: miter"/>
   </g>
   <g id="patch_10">
    <path d="M 85.138383 66284.561377 
L 90.621592 66284.561377 
L 90.621592 144.837716 
L 85.138383 144.837716 
z
" clip-path="url(#pb7e65e9701)" style="fill: #2e73b0; stroke: #ffffff; stroke-width: 0.4; stroke-linejoin: miter"/>
   </g>
   <g id="text_6">
    <text style="font-weight: 700; font-size: 8.5px; font-family: 'Arial'; text-anchor: middle" x="65.947151" y="31.64" transform="rotate(-0 65.947151 31.64)">Baseline</text>
   </g>
   <g id="patch_11">
    <path d="M 37.3248 176.22 
L 37.3248 35.64 
" style="fill: none; stroke: #000000; stroke-width: 0.7; stroke-linejoin: miter; stroke-linecap: square"/>
   </g>
   <g id="patch_12">
    <path d="M 37.3248 176.22 
L 94.569502 176.22 
" style="fill: none; stroke: #000000; stroke-width: 0.7; stroke-linejoin: miter; stroke-linecap: square"/>
   </g>
  </g>
  <g id="axes_2">
   <g id="patch_13">
    <path d="M 119.871661 176.22 
L 205.738715 176.22 
L 205.738715 35.64 
L 119.871661 35.64 
z
" style="fill: #ffffff"/>
   </g>
   <g id="line2d_8">
    <path d="M 119.871661 153.654968 
L 205.738715 153.654968 
" clip-path="url(#pe22d51ae11)" style="fill: none; stroke: #eeeeee; stroke-width: 0.5; stroke-linecap: square"/>
   </g>
   <g id="matplotlib.axis_3">
    <g id="xtick_3">
     <g id="line2d_9">
      <g>
       <use xlink:href="#m5478bd6856" x="136.368287" y="176.22" style="stroke: #000000; stroke-width: 0.8"/>
      </g>
     </g>
     <g id="text_7">
      <text style="font-size: 7px; font-family: 'Arial'; text-anchor: middle" x="136.368287" y="186.730469" transform="rotate(-0 136.368287 186.730469)">TIC</text>
     </g>
    </g>
    <g id="xtick_4">
     <g id="line2d_10">
      <g>
       <use xlink:href="#m5478bd6856" x="162.805188" y="176.22" style="stroke: #000000; stroke-width: 0.8"/>
      </g>
     </g>
     <g id="text_8">
      <text style="font-size: 7px; font-family: 'Arial'; text-anchor: middle" x="162.805188" y="186.730469" transform="rotate(-0 162.805188 186.730469)">RMS</text>
     </g>
    </g>
    <g id="xtick_5">
     <g id="line2d_11">
      <g>
       <use xlink:href="#m5478bd6856" x="189.242089" y="176.22" style="stroke: #000000; stroke-width: 0.8"/>
      </g>
     </g>
     <g id="text_9">
      <text style="font-size: 7px; font-family: 'Arial'; text-anchor: middle" x="189.242089" y="186.730469" transform="rotate(-0 189.242089 186.730469)">Ref</text>
     </g>
    </g>
   </g>
   <g id="matplotlib.axis_4">
    <g id="ytick_3">
     <g id="line2d_12">
      <path d="M 119.871661 153.654968 
L 205.738715 153.654968 
" clip-path="url(#pe22d51ae11)" style="fill: none; stroke: #eeeeee; stroke-width: 0.5; stroke-linecap: square"/>
     </g>
     <g id="line2d_13">
      <g>
       <use xlink:href="#m7c88a07d7b" x="119.871661" y="153.654968" style="stroke: #000000; stroke-width: 0.8"/>
      </g>
     </g>
     <g id="text_10">
      <text style="font-size: 7px; font-family: 'Arial'; text-anchor: end" x="114.371661" y="156.160202" transform="rotate(-0 114.371661 156.160202)">1</text>
     </g>
    </g>
    <g id="ytick_4">
     <g id="line2d_14">
      <path d="M 119.871661 87.524062 
L 205.738715 87.524062 
" clip-path="url(#pe22d51ae11)" style="fill: none; stroke: #eeeeee; stroke-width: 0.5; stroke-linecap: square"/>
     </g>
     <g id="line2d_15">
      <g>
       <use xlink:href="#m7c88a07d7b" x="119.871661" y="87.524062" style="stroke: #000000; stroke-width: 0.8"/>
      </g>
     </g>
     <g id="text_11">
      <text style="font-size: 7px; font-family: 'Arial'; text-anchor: end" x="114.371661" y="90.029296" transform="rotate(-0 114.371661 90.029296)">10</text>
     </g>
    </g>
   </g>
   <g id="patch_14">
    <path d="M 125.793527 66284.561377 
L 131.080907 66284.561377 
L 131.080907 150.155251 
L 125.793527 150.155251 
z
" clip-path="url(#pe22d51ae11)" style="fill: #cfe8f7; stroke: #ffffff; stroke-width: 0.4; stroke-linejoin: miter"/>
   </g>
   <g id="patch_15">
    <path d="M 152.230428 66284.561377 
L 157.517808 66284.561377 
L 157.517808 152.584759 
L 152.230428 152.584759 
z
" clip-path="url(#pe22d51ae11)" style="fill: #cfe8f7; stroke: #ffffff; stroke-width: 0.4; stroke-linejoin: miter"/>
   </g>
   <g id="patch_16">
    <path d="M 178.667328 66284.561377 
L 183.954708 66284.561377 
L 183.954708 151.18867 
L 178.667328 151.18867 
z
" clip-path="url(#pe22d51ae11)" style="fill: #cfe8f7; stroke: #ffffff; stroke-width: 0.4; stroke-linejoin: miter"/>
   </g>
   <g id="patch_17">
    <path d="M 131.080907 66284.561377 
L 136.368287 66284.561377 
L 136.368287 166.347895 
L 131.080907 166.347895 
z
" clip-path="url(#pe22d51ae11)" style="fill: #8fcdec; stroke: #e8a0a0; stroke-width: 0.8; stroke-linejoin: miter"/>
   </g>
   <g id="patch_18">
    <path d="M 157.517808 66284.561377 
L 162.805188 66284.561377 
L 162.805188 169.811253 
L 157.517808 169.811253 
z
" clip-path="url(#pe22d51ae11)" style="fill: #8fcdec; stroke: #e8a0a0; stroke-width: 0.8; stroke-linejoin: miter"/>
   </g>
   <g id="patch_19">
    <path d="M 183.954708 66284.561377 
L 189.242089 66284.561377 
L 189.242089 157.932116 
L 183.954708 157.932116 
z
" clip-path="url(#pe22d51ae11)" style="fill: #8fcdec; stroke: #e8a0a0; stroke-width: 0.8; stroke-linejoin: miter"/>
   </g>
   <g id="patch_20">
    <path d="M 136.368287 66284.561377 
L 141.655667 66284.561377 
L 141.655667 50.328022 
L 136.368287 50.328022 
z
" clip-path="url(#pe22d51ae11)" style="fill: #4fa8dc; stroke: #ffffff; stroke-width: 0.4; stroke-linejoin: miter"/>
   </g>
   <g id="patch_21">
    <path d="M 162.805188 66284.561377 
L 168.092568 66284.561377 
L 168.092568 47.285075 
L 162.805188 47.285075 
z
" clip-path="url(#pe22d51ae11)" style="fill: #4fa8dc; stroke: #ffffff; stroke-width: 0.4; stroke-linejoin: miter"/>
   </g>
   <g id="patch_22">
    <path d="M 189.242089 66284.561377 
L 194.529469 66284.561377 
L 194.529469 54.628568 
L 189.242089 54.628568 
z
" clip-path="url(#pe22d51ae11)" style="fill: #4fa8dc; stroke: #ffffff; stroke-width: 0.4; stroke-linejoin: miter"/>
   </g>
   <g id="patch_23">
    <path d="M 141.655667 66284.561377 
L 146.943047 66284.561377 
L 146.943047 135.081133 
L 141.655667 135.081133 
z
" clip-path="url(#pe22d51ae11)" style="fill: #2e73b0; stroke: #ffffff; stroke-width: 0.4; stroke-linejoin: miter"/>
   </g>
   <g id="patch_24">
    <path d="M 168.092568 66284.561377 
L 173.379948 66284.561377 
L 173.379948 129.485912 
L 168.092568 129.485912 
z
" clip-path="url(#pe22d51ae11)" style="fill: #2e73b0; stroke: #ffffff; stroke-width: 0.4; stroke-linejoin: miter"/>
   </g>
   <g id="patch_25">
    <path d="M 194.529469 66284.561377 
L 199.816849 66284.561377 
L 199.816849 138.52411 
L 194.529469 138.52411 
z
" clip-path="url(#pe22d51ae11)" style="fill: #2e73b0; stroke: #ffffff; stroke-width: 0.4; stroke-linejoin: miter"/>
   </g>
   <g id="text_12">
    <text style="font-weight: 700; font-size: 8.5px; font-family: 'Arial'; text-anchor: middle" x="162.805188" y="31.64" transform="rotate(-0 162.805188 31.64)">Normalization</text>
   </g>
   <g id="patch_26">
    <path d="M 119.871661 176.22 
L 119.871661 35.64 
" style="fill: none; stroke: #000000; stroke-width: 0.7; stroke-linejoin: miter; stroke-linecap: square"/>
   </g>
   <g id="patch_27">
    <path d="M 119.871661 176.22 
L 205.738715 176.22 
" style="fill: none; stroke: #000000; stroke-width: 0.7; stroke-linejoin: miter; stroke-linecap: square"/>
   </g>
  </g>
  <g id="axes_3">
   <g id="patch_28">
    <path d="M 231.040873 176.22 
L 259.663224 176.22 
L 259.663224 35.64 
L 231.040873 35.64 
z
" style="fill: #ffffff"/>
   </g>
   <g id="line2d_16">
    <path d="M 231.040873 153.654968 
L 259.663224 153.654968 
" clip-path="url(#p4fbcab15d0)" style="fill: none; stroke: #eeeeee; stroke-width: 0.5; stroke-linecap: square"/>
   </g>
   <g id="matplotlib.axis_5">
    <g id="xtick_6">
     <g id="line2d_17">
      <g>
       <use xlink:href="#m5478bd6856" x="245.352049" y="176.22" style="stroke: #000000; stroke-width: 0.8"/>
      </g>
     </g>
     <g id="text_13">
      <text style="font-size: 7px; font-family: 'Arial'; text-anchor: middle" x="245.352049" y="186.730469" transform="rotate(-0 245.352049 186.730469)">Default</text>
     </g>
    </g>
   </g>
   <g id="matplotlib.axis_6">
    <g id="ytick_5">
     <g id="line2d_18">
      <path d="M 231.040873 153.654968 
L 259.663224 153.654968 
" clip-path="url(#p4fbcab15d0)" style="fill: none; stroke: #eeeeee; stroke-width: 0.5; stroke-linecap: square"/>
     </g>
     <g id="line2d_19">
      <g>
       <use xlink:href="#m7c88a07d7b" x="231.040873" y="153.654968" style="stroke: #000000; stroke-width: 0.8"/>
      </g>
     </g>
     <g id="text_14">
      <text style="font-size: 7px; font-family: 'Arial'; text-anchor: end" x="225.540873" y="156.160202" transform="rotate(-0 225.540873 156.160202)">1</text>
     </g>
    </g>
    <g id="ytick_6">
     <g id="line2d_20">
      <path d="M 231.040873 87.524062 
L 259.663224 87.524062 
" clip-path="url(#p4fbcab15d0)" style="fill: none; stroke: #eeeeee; stroke-width: 0.5; stroke-linecap: square"/>
     </g>
     <g id="line2d_21">
      <g>
       <use xlink:href="#m7c88a07d7b" x="231.040873" y="87.524062" style="stroke: #000000; stroke-width: 0.8"/>
      </g>
     </g>
     <g id="text_15">
      <text style="font-size: 7px; font-family: 'Arial'; text-anchor: end" x="225.540873" y="90.029296" transform="rotate(-0 225.540873 90.029296)">10</text>
     </g>
    </g>
   </g>
   <g id="patch_29">
    <path d="M 233.014828 66284.561377 
L 239.183439 66284.561377 
L 239.183439 121.458785 
L 233.014828 121.458785 
z
" clip-path="url(#p4fbcab15d0)" style="fill: #cfe8f7; stroke: #ffffff; stroke-width: 0.4; stroke-linejoin: miter"/>
   </g>
   <g id="patch_30">
    <path d="M 239.183439 66284.561377 
L 245.352049 66284.561377 
L 245.352049 115.164082 
L 239.183439 115.164082 
z
" clip-path="url(#p4fbcab15d0)" style="fill: #8fcdec; stroke: #ffffff; stroke-width: 0.4; stroke-linejoin: miter"/>
   </g>
   <g id="patch_31">
    <path d="M 245.352049 66284.561377 
L 251.520659 66284.561377 
L 251.520659 131.52693 
L 245.352049 131.52693 
z
" clip-path="url(#p4fbcab15d0)" style="fill: #4fa8dc; stroke: #ffffff; stroke-width: 0.4; stroke-linejoin: miter"/>
   </g>
   <g id="patch_32">
    <path d="M 251.520659 66284.561377 
L 257.689269 66284.561377 
L 257.689269 111.829861 
L 251.520659 111.829861 
z
" clip-path="url(#p4fbcab15d0)" style="fill: #2e73b0; stroke: #ffffff; stroke-width: 0.4; stroke-linejoin: miter"/>
   </g>
   <g id="text_16">
    <text style="font-weight: 700; font-size: 8.5px; font-family: 'Arial'; text-anchor: middle" x="245.352049" y="31.64" transform="rotate(-0 245.352049 31.64)">Alignment</text>
   </g>
   <g id="patch_33">
    <path d="M 231.040873 176.22 
L 231.040873 35.64 
" style="fill: none; stroke: #000000; stroke-width: 0.7; stroke-linejoin: miter; stroke-linecap: square"/>
   </g>
   <g id="patch_34">
    <path d="M 231.040873 176.22 
L 259.663224 176.22 
" style="fill: none; stroke: #000000; stroke-width: 0.7; stroke-linejoin: miter; stroke-linecap: square"/>
   </g>
  </g>
  <g id="axes_4">
   <g id="patch_35">
    <path d="M 284.965383 176.22 
L 370.832437 176.22 
L 370.832437 35.64 
L 284.965383 35.64 
z
" style="fill: #ffffff"/>
   </g>
   <g id="line2d_22">
    <path d="M 284.965383 153.654968 
L 370.832437 153.654968 
" clip-path="url(#p956174f395)" style="fill: none; stroke: #eeeeee; stroke-width: 0.5; stroke-linecap: square"/>
   </g>
   <g id="matplotlib.axis_7">
    <g id="xtick_7">
     <g id="line2d_23">
      <g>
       <use xlink:href="#m5478bd6856" x="301.462009" y="176.22" style="stroke: #000000; stroke-width: 0.8"/>
      </g>
     </g>
     <g id="text_17">
      <text style="font-size: 7px; font-family: 'Arial'; text-anchor: middle" x="301.462009" y="186.730469" transform="rotate(-0 301.462009 186.730469)">MA</text>
     </g>
    </g>
    <g id="xtick_8">
     <g id="line2d_24">
      <g>
       <use xlink:href="#m5478bd6856" x="327.89891" y="176.22" style="stroke: #000000; stroke-width: 0.8"/>
      </g>
     </g>
     <g id="text_18">
      <text style="font-size: 7px; font-family: 'Arial'; text-anchor: middle" x="327.89891" y="186.730469" transform="rotate(-0 327.89891 186.730469)">Gauss</text>
     </g>
    </g>
    <g id="xtick_9">
     <g id="line2d_25">
      <g>
       <use xlink:href="#m5478bd6856" x="354.33581" y="176.22" style="stroke: #000000; stroke-width: 0.8"/>
      </g>
     </g>
     <g id="text_19">
      <text style="font-size: 7px; font-family: 'Arial'; text-anchor: middle" x="354.33581" y="186.730469" transform="rotate(-0 354.33581 186.730469)">SG</text>
     </g>
    </g>
   </g>
   <g id="matplotlib.axis_8">
    <g id="ytick_7">
     <g id="line2d_26">
      <path d="M 284.965383 153.654968 
L 370.832437 153.654968 
" clip-path="url(#p956174f395)" style="fill: none; stroke: #eeeeee; stroke-width: 0.5; stroke-linecap: square"/>
     </g>
     <g id="line2d_27">
      <g>
       <use xlink:href="#m7c88a07d7b" x="284.965383" y="153.654968" style="stroke: #000000; stroke-width: 0.8"/>
      </g>
     </g>
     <g id="text_20">
      <text style="font-size: 7px; font-family: 'Arial'; text-anchor: end" x="279.465383" y="156.160202" transform="rotate(-0 279.465383 156.160202)">1</text>
     </g>
    </g>
    <g id="ytick_8">
     <g id="line2d_28">
      <path d="M 284.965383 87.524062 
L 370.832437 87.524062 
" clip-path="url(#p956174f395)" style="fill: none; stroke: #eeeeee; stroke-width: 0.5; stroke-linecap: square"/>
     </g>
     <g id="line2d_29">
      <g>
       <use xlink:href="#m7c88a07d7b" x="284.965383" y="87.524062" style="stroke: #000000; stroke-width: 0.8"/>
      </g>
     </g>
     <g id="text_21">
      <text style="font-size: 7px; font-family: 'Arial'; text-anchor: end" x="279.465383" y="90.029296" transform="rotate(-0 279.465383 90.029296)">10</text>
     </g>
    </g>
   </g>
   <g id="patch_36">
    <path d="M 290.887249 66284.561377 
L 296.174629 66284.561377 
L 296.174629 146.869433 
L 290.887249 146.869433 
z
" clip-path="url(#p956174f395)" style="fill: #cfe8f7; stroke: #ffffff; stroke-width: 0.4; stroke-linejoin: miter"/>
   </g>
   <g id="patch_37">
    <path d="M 317.324149 66284.561377 
L 322.61153 66284.561377 
L 322.61153 144.020445 
L 317.324149 144.020445 
z
" clip-path="url(#p956174f395)" style="fill: #cfe8f7; stroke: #ffffff; stroke-width: 0.4; stroke-linejoin: miter"/>
   </g>
   <g id="patch_38">
    <path d="M 343.76105 66284.561377 
L 349.04843 66284.561377 
L 349.04843 141.49245 
L 343.76105 141.49245 
z
" clip-path="url(#p956174f395)" style="fill: #cfe8f7; stroke: #ffffff; stroke-width: 0.4; stroke-linejoin: miter"/>
   </g>
   <g id="patch_39">
    <path d="M 296.174629 66284.561377 
L 301.462009 66284.561377 
L 301.462009 157.609779 
L 296.174629 157.609779 
z
" clip-path="url(#p956174f395)" style="fill: #8fcdec; stroke: #e8a0a0; stroke-width: 0.8; stroke-linejoin: miter"/>
   </g>
   <g id="patch_40">
    <path d="M 322.61153 66284.561377 
L 327.89891 66284.561377 
L 327.89891 151.308656 
L 322.61153 151.308656 
z
" clip-path="url(#p956174f395)" style="fill: #8fcdec; stroke: #ffffff; stroke-width: 0.4; stroke-linejoin: miter"/>
   </g>
   <g id="patch_41">
    <path d="M 349.04843 66284.561377 
L 354.33581 66284.561377 
L 354.33581 149.684994 
L 349.04843 149.684994 
z
" clip-path="url(#p956174f395)" style="fill: #8fcdec; stroke: #ffffff; stroke-width: 0.4; stroke-linejoin: miter"/>
   </g>
   <g id="patch_42">
    <path d="M 301.462009 66284.561377 
L 306.749389 66284.561377 
L 306.749389 53.434749 
L 301.462009 53.434749 
z
" clip-path="url(#p956174f395)" style="fill: #4fa8dc; stroke: #ffffff; stroke-width: 0.4; stroke-linejoin: miter"/>
   </g>
   <g id="patch_43">
    <path d="M 327.89891 66284.561377 
L 333.18629 66284.561377 
L 333.18629 50.373367 
L 327.89891 50.373367 
z
" clip-path="url(#p956174f395)" style="fill: #4fa8dc; stroke: #ffffff; stroke-width: 0.4; stroke-linejoin: miter"/>
   </g>
   <g id="patch_44">
    <path d="M 354.33581 66284.561377 
L 359.623191 66284.561377 
L 359.623191 55.55079 
L 354.33581 55.55079 
z
" clip-path="url(#p956174f395)" style="fill: #4fa8dc; stroke: #ffffff; stroke-width: 0.4; stroke-linejoin: miter"/>
   </g>
   <g id="patch_45">
    <path d="M 306.749389 66284.561377 
L 312.036769 66284.561377 
L 312.036769 124.968871 
L 306.749389 124.968871 
z
" clip-path="url(#p956174f395)" style="fill: #2e73b0; stroke: #ffffff; stroke-width: 0.4; stroke-linejoin: miter"/>
   </g>
   <g id="patch_46">
    <path d="M 333.18629 66284.561377 
L 338.47367 66284.561377 
L 338.47367 120.61298 
L 333.18629 120.61298 
z
" clip-path="url(#p956174f395)" style="fill: #2e73b0; stroke: #ffffff; stroke-width: 0.4; stroke-linejoin: miter"/>
   </g>
   <g id="patch_47">
    <path d="M 359.623191 66284.561377 
L 364.910571 66284.561377 
L 364.910571 121.624911 
L 359.623191 121.624911 
z
" clip-path="url(#p956174f395)" style="fill: #2e73b0; stroke: #ffffff; stroke-width: 0.4; stroke-linejoin: miter"/>
   </g>
   <g id="text_22">
    <text style="font-weight: 700; font-size: 8.5px; font-family: 'Arial'; text-anchor: middle" x="327.89891" y="31.64" transform="rotate(-0 327.89891 31.64)">Denoising</text>
   </g>
   <g id="patch_48">
    <path d="M 284.965383 176.22 
L 284.965383 35.64 
" style="fill: none; stroke: #000000; stroke-width: 0.7; stroke-linejoin: miter; stroke-linecap: square"/>
   </g>
   <g id="patch_49">
    <path d="M 284.965383 176.22 
L 370.832437 176.22 
" style="fill: none; stroke: #000000; stroke-width: 0.7; stroke-linejoin: miter; stroke-linecap: square"/>
   </g>
  </g>
  <g id="axes_5">
   <g id="patch_50">
    <path d="M 396.134595 176.22 
L 510.624 176.22 
L 510.624 35.64 
L 396.134595 35.64 
z
" style="fill: #ffffff"/>
   </g>
   <g id="line2d_30">
    <path d="M 396.134595 153.654968 
L 510.624 153.654968 
" clip-path="url(#p64f07a7f84)" style="fill: none; stroke: #eeeeee; stroke-width: 0.5; stroke-linecap: square"/>
   </g>
   <g id="matplotlib.axis_9">
    <g id="xtick_10">
     <g id="line2d_31">
      <g>
       <use xlink:href="#m5478bd6856" x="414.419654" y="176.22" style="stroke: #000000; stroke-width: 0.8"/>
      </g>
     </g>
     <g id="text_23">
      <text style="font-size: 7px; font-family: 'Arial'; text-anchor: middle" x="414.419654" y="186.730469" transform="rotate(-0 414.419654 186.730469)">Quantile</text>
     </g>
    </g>
    <g id="xtick_11">
     <g id="line2d_32">
      <g>
       <use xlink:href="#m5478bd6856" x="440.39275" y="176.22" style="stroke: #000000; stroke-width: 0.8"/>
      </g>
     </g>
     <g id="text_24">
      <text style="font-size: 7px; font-family: 'Arial'; text-anchor: middle" x="440.39275" y="186.730469" transform="rotate(-0 440.39275 186.730469)">Diff</text>
     </g>
    </g>
    <g id="xtick_12">
     <g id="line2d_33">
      <g>
       <use xlink:href="#m5478bd6856" x="466.365845" y="176.22" style="stroke: #000000; stroke-width: 0.8"/>
      </g>
     </g>
     <g id="text_25">
      <text style="font-size: 7px; font-family: 'Arial'; text-anchor: middle" x="466.365845" y="186.730469" transform="rotate(-0 466.365845 186.730469)">SD</text>
     </g>
    </g>
    <g id="xtick_13">
     <g id="line2d_34">
      <g>
       <use xlink:href="#m5478bd6856" x="492.338941" y="176.22" style="stroke: #000000; stroke-width: 0.8"/>
      </g>
     </g>
     <g id="text_26">
      <text style="font-size: 7px; font-family: 'Arial'; text-anchor: middle" x="492.338941" y="186.730469" transform="rotate(-0 492.338941 186.730469)">MAD</text>
     </g>
    </g>
   </g>
   <g id="matplotlib.axis_10">
    <g id="ytick_9">
     <g id="line2d_35">
      <path d="M 396.134595 153.654968 
L 510.624 153.654968 
" clip-path="url(#p64f07a7f84)" style="fill: none; stroke: #eeeeee; stroke-width: 0.5; stroke-linecap: square"/>
     </g>
     <g id="line2d_36">
      <g>
       <use xlink:href="#m7c88a07d7b" x="396.134595" y="153.654968" style="stroke: #000000; stroke-width: 0.8"/>
      </g>
     </g>
     <g id="text_27">
      <text style="font-size: 7px; font-family: 'Arial'; text-anchor: end" x="390.634595" y="156.160202" transform="rotate(-0 390.634595 156.160202)">1</text>
     </g>
    </g>
    <g id="ytick_10">
     <g id="line2d_37">
      <path d="M 396.134595 87.524062 
L 510.624 87.524062 
" clip-path="url(#p64f07a7f84)" style="fill: none; stroke: #eeeeee; stroke-width: 0.5; stroke-linecap: square"/>
     </g>
     <g id="line2d_38">
      <g>
       <use xlink:href="#m7c88a07d7b" x="396.134595" y="87.524062" style="stroke: #000000; stroke-width: 0.8"/>
      </g>
     </g>
     <g id="text_28">
      <text style="font-size: 7px; font-family: 'Arial'; text-anchor: end" x="390.634595" y="90.029296" transform="rotate(-0 390.634595 90.029296)">10</text>
     </g>
    </g>
   </g>
   <g id="patch_51">
    <path d="M 404.030416 66284.561377 
L 409.225035 66284.561377 
L 409.225035 116.224118 
L 404.030416 116.224118 
z
" clip-path="url(#p64f07a7f84)" style="fill: #cfe8f7; stroke: #ffffff; stroke-width: 0.4; stroke-linejoin: miter"/>
   </g>
   <g id="patch_52">
    <path d="M 430.003512 66284.561377 
L 435.198131 66284.561377 
L 435.198131 125.027771 
L 430.003512 125.027771 
z
" clip-path="url(#p64f07a7f84)" style="fill: #cfe8f7; stroke: #ffffff; stroke-width: 0.4; stroke-linejoin: miter"/>
   </g>
   <g id="patch_53">
    <path d="M 455.976607 66284.561377 
L 461.171226 66284.561377 
L 461.171226 118.926433 
L 455.976607 118.926433 
z
" clip-path="url(#p64f07a7f84)" style="fill: #cfe8f7; stroke: #ffffff; stroke-width: 0.4; stroke-linejoin: miter"/>
   </g>
   <g id="patch_54">
    <path d="M 481.949703 66284.561377 
L 487.144322 66284.561377 
L 487.144322 125.276124 
L 481.949703 125.276124 
z
" clip-path="url(#p64f07a7f84)" style="fill: #cfe8f7; stroke: #ffffff; stroke-width: 0.4; stroke-linejoin: miter"/>
   </g>
   <g id="patch_55">
    <path d="M 409.225035 66284.561377 
L 414.419654 66284.561377 
L 414.419654 115.632445 
L 409.225035 115.632445 
z
" clip-path="url(#p64f07a7f84)" style="fill: #8fcdec; stroke: #ffffff; stroke-width: 0.4; stroke-linejoin: miter"/>
   </g>
   <g id="patch_56">
    <path d="M 435.198131 66284.561377 
L 440.39275 66284.561377 
L 440.39275 112.317401 
L 435.198131 112.317401 
z
" clip-path="url(#p64f07a7f84)" style="fill: #8fcdec; stroke: #ffffff; stroke-width: 0.4; stroke-linejoin: miter"/>
   </g>
   <g id="patch_57">
    <path d="M 461.171226 66284.561377 
L 466.365845 66284.561377 
L 466.365845 107.178891 
L 461.171226 107.178891 
z
" clip-path="url(#p64f07a7f84)" style="fill: #8fcdec; stroke: #ffffff; stroke-width: 0.4; stroke-linejoin: miter"/>
   </g>
   <g id="patch_58">
    <path d="M 487.144322 66284.561377 
L 492.338941 66284.561377 
L 492.338941 120.415477 
L 487.144322 120.415477 
z
" clip-path="url(#p64f07a7f84)" style="fill: #8fcdec; stroke: #ffffff; stroke-width: 0.4; stroke-linejoin: miter"/>
   </g>
   <g id="patch_59">
    <path d="M 414.419654 66284.561377 
L 419.614273 66284.561377 
L 419.614273 129.574371 
L 414.419654 129.574371 
z
" clip-path="url(#p64f07a7f84)" style="fill: #4fa8dc; stroke: #ffffff; stroke-width: 0.4; stroke-linejoin: miter"/>
   </g>
   <g id="patch_60">
    <path d="M 440.39275 66284.561377 
L 445.587369 66284.561377 
L 445.587369 104.976611 
L 440.39275 104.976611 
z
" clip-path="url(#p64f07a7f84)" style="fill: #4fa8dc; stroke: #ffffff; stroke-width: 0.4; stroke-linejoin: miter"/>
   </g>
   <g id="patch_61">
    <path d="M 466.365845 66284.561377 
L 471.560464 66284.561377 
L 471.560464 98.436164 
L 466.365845 98.436164 
z
" clip-path="url(#p64f07a7f84)" style="fill: #4fa8dc; stroke: #ffffff; stroke-width: 0.4; stroke-linejoin: miter"/>
   </g>
   <g id="patch_62">
    <path d="M 492.338941 66284.561377 
L 497.53356 66284.561377 
L 497.53356 135.223275 
L 492.338941 135.223275 
z
" clip-path="url(#p64f07a7f84)" style="fill: #4fa8dc; stroke: #ffffff; stroke-width: 0.4; stroke-linejoin: miter"/>
   </g>
   <g id="patch_63">
    <path d="M 419.614273 66284.561377 
L 424.808892 66284.561377 
L 424.808892 121.773435 
L 419.614273 121.773435 
z
" clip-path="url(#p64f07a7f84)" style="fill: #2e73b0; stroke: #ffffff; stroke-width: 0.4; stroke-linejoin: miter"/>
   </g>
   <g id="patch_64">
    <path d="M 445.587369 66284.561377 
L 450.781988 66284.561377 
L 450.781988 106.034184 
L 445.587369 106.034184 
z
" clip-path="url(#p64f07a7f84)" style="fill: #2e73b0; stroke: #ffffff; stroke-width: 0.4; stroke-linejoin: miter"/>
   </g>
   <g id="patch_65">
    <path d="M 471.560464 66284.561377 
L 476.755083 66284.561377 
L 476.755083 97.043429 
L 471.560464 97.043429 
z
" clip-path="url(#p64f07a7f84)" style="fill: #2e73b0; stroke: #ffffff; stroke-width: 0.4; stroke-linejoin: miter"/>
   </g>
   <g id="patch_66">
    <path d="M 497.53356 66284.561377 
L 502.728179 66284.561377 
L 502.728179 131.158905 
L 497.53356 131.158905 
z
" clip-path="url(#p64f07a7f84)" style="fill: #2e73b0; stroke: #ffffff; stroke-width: 0.4; stroke-linejoin: miter"/>
   </g>
   <g id="text_29">
    <text style="font-weight: 700; font-size: 8.5px; font-family: 'Arial'; text-anchor: middle" x="453.379298" y="31.64" transform="rotate(-0 453.379298 31.64)">Peak Picking</text>
   </g>
   <g id="patch_67">
    <path d="M 396.134595 176.22 
L 396.134595 35.64 
" style="fill: none; stroke: #000000; stroke-width: 0.7; stroke-linejoin: miter; stroke-linecap: square"/>
   </g>
   <g id="patch_68">
    <path d="M 396.134595 176.22 
L 510.624 176.22 
" style="fill: none; stroke: #000000; stroke-width: 0.7; stroke-linejoin: miter; stroke-linecap: square"/>
   </g>
  </g>
  <g id="legend_1">
   <g id="patch_69">
    <path d="M 180.70875 11.93625 
L 189.50875 11.93625 
L 189.50875 6.33625 
L 180.70875 6.33625 
z
" style="fill: #cfe8f7; stroke: #ffffff; stroke-linejoin: miter"/>
   </g>
   <g id="text_30">
    <text style="font-size: 8px; font-family: 'Arial'; text-anchor: start" x="195.90875" y="11.93625" transform="rotate(-0 195.90875 11.93625)">Min</text>
   </g>
   <g id="patch_70">
    <path d="M 221.59875 11.93625 
L 230.39875 11.93625 
L 230.39875 6.33625 
L 221.59875 6.33625 
z
" style="fill: #8fcdec; stroke: #ffffff; stroke-linejoin: miter"/>
   </g>
   <g id="text_31">
    <text style="font-size: 8px; font-family: 'Arial'; text-anchor: start" x="236.79875" y="11.93625" transform="rotate(-0 236.79875 11.93625)">Mid</text>
   </g>
   <g id="patch_71">
    <path d="M 262.48875 11.93625 
L 271.28875 11.93625 
L 271.28875 6.33625 
L 262.48875 6.33625 
z
" style="fill: #4fa8dc; stroke: #ffffff; stroke-linejoin: miter"/>
   </g>
   <g id="text_32">
    <text style="font-size: 8px; font-family: 'Arial'; text-anchor: start" x="277.68875" y="11.93625" transform="rotate(-0 277.68875 11.93625)">Max</text>
   </g>
   <g id="patch_72">
    <path d="M 305.60125 11.93625 
L 314.40125 11.93625 
L 314.40125 6.33625 
L 305.60125 6.33625 
z
" style="fill: #2e73b0; stroke: #ffffff; stroke-linejoin: miter"/>
   </g>
   <g id="text_33">
    <text style="font-size: 8px; font-family: 'Arial'; text-anchor: start" x="320.80125" y="11.93625" transform="rotate(-0 320.80125 11.93625)">Ultra</text>
   </g>
  </g>
 </g>
 <defs>
  <clipPath id="pb7e65e9701">
   <rect x="37.3248" y="35.64" width="57.244702" height="140.58"/>
  </clipPath>
  <clipPath id="pe22d51ae11">
   <rect x="119.871661" y="35.64" width="85.867054" height="140.58"/>
  </clipPath>
  <clipPath id="p4fbcab15d0">
   <rect x="231.040873" y="35.64" width="28.622351" height="140.58"/>
  </clipPath>
  <clipPath id="p956174f395">
   <rect x="284.965383" y="35.64" width="85.867054" height="140.58"/>
  </clipPath>
  <clipPath id="p64f07a7f84">
   <rect x="396.134595" y="35.64" width="114.489405" height="140.58"/>
  </clipPath>
 </defs>
</svg>
