<?xml version="1.0" encoding="utf-8" standalone="no"?>
<!DOCTYPE svg PUBLIC "-//W3C//DTD SVG 1.1//EN"
  "http://www.w3.org/Graphics/SVG/1.1/DTD/svg11.dtd">
<svg xmlns:xlink="http://www.w3.org/1999/xlink" width="518.4pt" height="198pt" viewBox="0 0 518.4 198" xmlns="http://www.w3.org/2000/svg" version="1.1">
 <metadata>
  <rdf:RDF xmlns:dc="http://purl.org/dc/elements/1.1/" xmlns:cc="http://creativecommons.org/ns#" xmlns:rdf="http://www.w3.org/1999/02/22-rdf-syntax-ns#">
   <cc:Work>
    <dc:type rdf:resource="http://purl.org/dc/dcmitype/StillImage"/>
    <dc:date>2026-06-25T21:58:54.522328</dc:date>
    <dc:format>image/svg+xml</dc:format>
    <dc:creator>
     <cc:Agent>
      <dc:title>Matplotlib v3.10.8, https://matplotlib.org/</dc:title>
     </cc:Agent>
    </dc:creator>
   </cc:Work>
  </rdf:RDF>
 </metadata>
 <defs>
  <style type="text/css">*{stroke-linejoin: round; stroke-linecap: butt}</style>
 </defs>
 <g id="figure_1">
  <g id="patch_1">
   <path d="M 0 198 
L 518.4 198 
L 518.4 0 
L 0 0 
z
" style="fill: #ffffff"/>
  </g>
  <g id="axes_1">
   <g id="patch_2">
    <path d="M 37.3248 176.22 
L 94.569502 176.22 
L 94.569502 35.64 
L 37.3248 35.64 
z
" style="fill: #ffffff"/>
   </g>
   <g id="line2d_1">
    <path d="M 37.3248 164.992118 
L 94.569502 164.992118 
" clip-path="url(#p6754bcdef6)" style="fill: none; stroke: #eeeeee; stroke-width: 0.5; stroke-linecap: square"/>
   </g>
   <g id="matplotlib.axis_1">
    <g id="xtick_1">
     <g id="line2d_2">
      <defs>
       <path id="mae36b8f4bf" d="M 0 0 
L 0 2 
" style="stroke: #000000; stroke-width: 0.8"/>
      </defs>
      <g>
       <use xlink:href="#mae36b8f4bf" x="52.239129" y="176.22" style="stroke: #000000; stroke-width: 0.8"/>
      </g>
     </g>
     <g id="text_1">
      <text style="font-size: 7px; font-family: 'Arial'; text-anchor: middle" x="52.239129" y="186.730469" transform="rotate(-0 52.239129 186.730469)">LocMin</text>
     </g>
    </g>
    <g id="xtick_2">
     <g id="line2d_3">
      <g>
       <use xlink:href="#mae36b8f4bf" x="79.655174" y="176.22" style="stroke: #000000; stroke-width: 0.8"/>
      </g>
     </g>
     <g id="text_2">
      <text style="font-size: 7px; font-family: 'Arial'; text-anchor: middle" x="79.655174" y="186.730469" transform="rotate(-0 79.655174 186.730469)">SNIP</text>
     </g>
    </g>
   </g>
   <g id="matplotlib.axis_2">
    <g id="ytick_1">
     <g id="line2d_4">
      <path d="M 37.3248 164.992118 
L 94.569502 164.992118 
" clip-path="url(#p6754bcdef6)" style="fill: none; stroke: #eeeeee; stroke-width: 0.5; stroke-linecap: square"/>
     </g>
     <g id="line2d_5">
      <defs>
       <path id="mc06d127018" d="M 0 0 
L -2 0 
" style="stroke: #000000; stroke-width: 0.8"/>
      </defs>
      <g>
       <use xlink:href="#mc06d127018" x="37.3248" y="164.992118" style="stroke: #000000; stroke-width: 0.8"/>
      </g>
     </g>
     <g id="text_3">
      <text style="font-size: 7px; font-family: 'Arial'; text-anchor: end" x="31.8248" y="167.497352" transform="rotate(-0 31.8248 167.497352)">1</text>
     </g>
    </g>
    <g id="ytick_2">
     <g id="line2d_6">
      <path d="M 37.3248 92.508323 
L 94.569502 92.508323 
" clip-path="url(#p6754bcdef6)" style="fill: none; stroke: #eeeeee; stroke-width: 0.5; stroke-linecap: square"/>
     </g>
     <g id="line2d_7">
      <g>
       <use xlink:href="#mc06d127018" x="37.3248" y="92.508323" style="stroke: #000000; stroke-width: 0.8"/>
      </g>
     </g>
     <g id="text_4">
      <text style="font-size: 7px; font-family: 'Arial'; text-anchor: end" x="31.8248" y="95.013557" transform="rotate(-0 31.8248 95.013557)">10</text>
     </g>
    </g>
    <g id="text_5">
     <text style="font-size: 8px; font-family: 'Arial'; text-anchor: middle" x="18.355737" y="105.93" transform="rotate(-90 18.355737 105.93)">Relative ratio (×)</text>
    </g>
   </g>
   <g id="patch_3">
    <path d="M 41.272711 72648.787603 
L 46.75592 72648.787603 
L 46.75592 138.533118 
L 41.272711 138.533118 
z
" clip-path="url(#p6754bcdef6)" style="fill: #cfe8f7; stroke: #ffffff; stroke-width: 0.4; stroke-linejoin: miter"/>
   </g>
   <g id="patch_4">
    <path d="M 68.688756 72648.787603 
L 74.171965 72648.787603 
L 74.171965 156.066975 
L 68.688756 156.066975 
z
" clip-path="url(#p6754bcdef6)" style="fill: #cfe8f7; stroke: #ffffff; stroke-width: 0.4; stroke-linejoin: miter"/>
   </g>
   <g id="patch_5">
    <path d="M 46.75592 72648.787603 
L 52.239129 72648.787603 
L 52.239129 99.431629 
L 46.75592 99.431629 
z
" clip-path="url(#p6754bcdef6)" style="fill: #8fcdec; stroke: #ffffff; stroke-width: 0.4; stroke-linejoin: miter"/>
   </g>
   <g id="patch_6">
    <path d="M 74.171965 72648.787603 
L 79.655174 72648.787603 
L 79.655174 133.605979 
L 74.171965 133.605979 
z
" clip-path="url(#p6754bcdef6)" style="fill: #8fcdec; stroke: #ffffff; stroke-width: 0.4; stroke-linejoin: miter"/>
   </g>
   <g id="patch_7">
    <path d="M 52.239129 72648.787603 
L 57.722338 72648.787603 
L 57.722338 64.620901 
L 52.239129 64.620901 
z
" clip-path="url(#p6754bcdef6)" style="fill: #4fa8dc; stroke: #ffffff; stroke-width: 0.4; stroke-linejoin: miter"/>
   </g>
   <g id="patch_8">
    <path d="M 79.655174 72648.787603 
L 85.138383 72648.787603 
L 85.138383 62.259811 
L 79.655174 62.259811 
z
" clip-path="url(#p6754bcdef6)" style="fill: #4fa8dc; stroke: #ffffff; stroke-width: 0.4; stroke-linejoin: miter"/>
   </g>
   <g id="patch_9">
    <path d="M 57.722338 72648.787603 
L 63.205547 72648.787603 
L 63.205547 120.013354 
L 57.722338 120.013354 
z
" clip-path="url(#p6754bcdef6)" style="fill: #2e73b0; stroke: #ffffff; stroke-width: 0.4; stroke-linejoin: miter"/>
   </g>
   <g id="patch_10">
    <path d="M 85.138383 72648.787603 
L 90.621592 72648.787603 
L 90.621592 132.04659 
L 85.138383 132.04659 
z
" clip-path="url(#p6754bcdef6)" style="fill: #2e73b0; stroke: #ffffff; stroke-width: 0.4; stroke-linejoin: miter"/>
   </g>
   <g id="text_6">
    <text style="font-weight: 700; font-size: 8.5px; font-family: 'Arial'; text-anchor: middle" x="65.947151" y="31.64" transform="rotate(-0 65.947151 31.64)">Baseline</text>
   </g>
   <g id="patch_11">
    <path d="M 37.3248 176.22 
L 37.3248 35.64 
" style="fill: none; stroke: #000000; stroke-width: 0.7; stroke-linejoin: miter; stroke-linecap: square"/>
   </g>
   <g id="patch_12">
    <path d="M 37.3248 176.22 
L 94.569502 176.22 
" style="fill: none; stroke: #000000; stroke-width: 0.7; stroke-linejoin: miter; stroke-linecap: square"/>
   </g>
  </g>
  <g id="axes_2">
   <g id="patch_13">
    <path d="M 119.871661 176.22 
L 205.738715 176.22 
L 205.738715 35.64 
L 119.871661 35.64 
z
" style="fill: #ffffff"/>
   </g>
   <g id="line2d_8">
    <path d="M 119.871661 164.992118 
L 205.738715 164.992118 
" clip-path="url(#pe81bb18eee)" style="fill: none; stroke: #eeeeee; stroke-width: 0.5; stroke-linecap: square"/>
   </g>
   <g id="matplotlib.axis_3">
    <g id="xtick_3">
     <g id="line2d_9">
      <g>
       <use xlink:href="#mae36b8f4bf" x="136.368287" y="176.22" style="stroke: #000000; stroke-width: 0.8"/>
      </g>
     </g>
     <g id="text_7">
      <text style="font-size: 7px; font-family: 'Arial'; text-anchor: middle" x="136.368287" y="186.730469" transform="rotate(-0 136.368287 186.730469)">TIC</text>
     </g>
    </g>
    <g id="xtick_4">
     <g id="line2d_10">
      <g>
       <use xlink:href="#mae36b8f4bf" x="162.805188" y="176.22" style="stroke: #000000; stroke-width: 0.8"/>
      </g>
     </g>
     <g id="text_8">
      <text style="font-size: 7px; font-family: 'Arial'; text-anchor: middle" x="162.805188" y="186.730469" transform="rotate(-0 162.805188 186.730469)">RMS</text>
     </g>
    </g>
    <g id="xtick_5">
     <g id="line2d_11">
      <g>
       <use xlink:href="#mae36b8f4bf" x="189.242089" y="176.22" style="stroke: #000000; stroke-width: 0.8"/>
      </g>
     </g>
     <g id="text_9">
      <text style="font-size: 7px; font-family: 'Arial'; text-anchor: middle" x="189.242089" y="186.730469" transform="rotate(-0 189.242089 186.730469)">Ref</text>
     </g>
    </g>
   </g>
   <g id="matplotlib.axis_4">
    <g id="ytick_3">
     <g id="line2d_12">
      <path d="M 119.871661 164.992118 
L 205.738715 164.992118 
" clip-path="url(#pe81bb18eee)" style="fill: none; stroke: #eeeeee; stroke-width: 0.5; stroke-linecap: square"/>
     </g>
     <g id="line2d_13">
      <g>
       <use xlink:href="#mc06d127018" x="119.871661" y="164.992118" style="stroke: #000000; stroke-width: 0.8"/>
      </g>
     </g>
     <g id="text_10">
      <text style="font-size: 7px; font-family: 'Arial'; text-anchor: end" x="114.371661" y="167.497352" transform="rotate(-0 114.371661 167.497352)">1</text>
     </g>
    </g>
    <g id="ytick_4">
     <g id="line2d_14">
      <path d="M 119.871661 92.508323 
L 205.738715 92.508323 
" clip-path="url(#pe81bb18eee)" style="fill: none; stroke: #eeeeee; stroke-width: 0.5; stroke-linecap: square"/>
     </g>
     <g id="line2d_15">
      <g>
       <use xlink:href="#mc06d127018" x="119.871661" y="92.508323" style="stroke: #000000; stroke-width: 0.8"/>
      </g>
     </g>
     <g id="text_11">
      <text style="font-size: 7px; font-family: 'Arial'; text-anchor: end" x="114.371661" y="95.013557" transform="rotate(-0 114.371661 95.013557)">10</text>
     </g>
    </g>
   </g>
   <g id="patch_14">
    <path d="M 125.793527 72648.787603 
L 131.080907 72648.787603 
L 131.080907 161.1562 
L 125.793527 161.1562 
z
" clip-path="url(#pe81bb18eee)" style="fill: #cfe8f7; stroke: #ffffff; stroke-width: 0.4; stroke-linejoin: miter"/>
   </g>
   <g id="patch_15">
    <path d="M 152.230428 72648.787603 
L 157.517808 72648.787603 
L 157.517808 163.819099 
L 152.230428 163.819099 
z
" clip-path="url(#pe81bb18eee)" style="fill: #cfe8f7; stroke: #ffffff; stroke-width: 0.4; stroke-linejoin: miter"/>
   </g>
   <g id="patch_16">
    <path d="M 178.667328 72648.787603 
L 183.954708 72648.787603 
L 183.954708 162.288894 
L 178.667328 162.288894 
z
" clip-path="url(#pe81bb18eee)" style="fill: #cfe8f7; stroke: #ffffff; stroke-width: 0.4; stroke-linejoin: miter"/>
   </g>
   <g id="patch_17">
    <path d="M 131.080907 72648.787603 
L 136.368287 72648.787603 
L 136.368287 130.213595 
L 131.080907 130.213595 
z
" clip-path="url(#pe81bb18eee)" style="fill: #8fcdec; stroke: #ffffff; stroke-width: 0.4; stroke-linejoin: miter"/>
   </g>
   <g id="patch_18">
    <path d="M 157.517808 72648.787603 
L 162.805188 72648.787603 
L 162.805188 126.600876 
L 157.517808 126.600876 
z
" clip-path="url(#pe81bb18eee)" style="fill: #8fcdec; stroke: #ffffff; stroke-width: 0.4; stroke-linejoin: miter"/>
   </g>
   <g id="patch_19">
    <path d="M 183.954708 72648.787603 
L 189.242089 72648.787603 
L 189.242089 121.691055 
L 183.954708 121.691055 
z
" clip-path="url(#pe81bb18eee)" style="fill: #8fcdec; stroke: #ffffff; stroke-width: 0.4; stroke-linejoin: miter"/>
   </g>
   <g id="patch_20">
    <path d="M 136.368287 72648.787603 
L 141.655667 72648.787603 
L 141.655667 51.739032 
L 136.368287 51.739032 
z
" clip-path="url(#pe81bb18eee)" style="fill: #4fa8dc; stroke: #ffffff; stroke-width: 0.4; stroke-linejoin: miter"/>
   </g>
   <g id="patch_21">
    <path d="M 162.805188 72648.787603 
L 168.092568 72648.787603 
L 168.092568 48.403763 
L 162.805188 48.403763 
z
" clip-path="url(#pe81bb18eee)" style="fill: #4fa8dc; stroke: #ffffff; stroke-width: 0.4; stroke-linejoin: miter"/>
   </g>
   <g id="patch_22">
    <path d="M 189.242089 72648.787603 
L 194.529469 72648.787603 
L 194.529469 56.452711 
L 189.242089 56.452711 
z
" clip-path="url(#pe81bb18eee)" style="fill: #4fa8dc; stroke: #ffffff; stroke-width: 0.4; stroke-linejoin: miter"/>
   </g>
   <g id="patch_23">
    <path d="M 141.655667 72648.787603 
L 146.943047 72648.787603 
L 146.943047 144.633981 
L 141.655667 144.633981 
z
" clip-path="url(#pe81bb18eee)" style="fill: #2e73b0; stroke: #ffffff; stroke-width: 0.4; stroke-linejoin: miter"/>
   </g>
   <g id="patch_24">
    <path d="M 168.092568 72648.787603 
L 173.379948 72648.787603 
L 173.379948 138.501254 
L 168.092568 138.501254 
z
" clip-path="url(#pe81bb18eee)" style="fill: #2e73b0; stroke: #ffffff; stroke-width: 0.4; stroke-linejoin: miter"/>
   </g>
   <g id="patch_25">
    <path d="M 194.529469 72648.787603 
L 199.816849 72648.787603 
L 199.816849 148.407708 
L 194.529469 148.407708 
z
" clip-path="url(#pe81bb18eee)" style="fill: #2e73b0; stroke: #ffffff; stroke-width: 0.4; stroke-linejoin: miter"/>
   </g>
   <g id="text_12">
    <text style="font-weight: 700; font-size: 8.5px; font-family: 'Arial'; text-anchor: middle" x="162.805188" y="31.64" transform="rotate(-0 162.805188 31.64)">Normalization</text>
   </g>
   <g id="patch_26">
    <path d="M 119.871661 176.22 
L 119.871661 35.64 
" style="fill: none; stroke: #000000; stroke-width: 0.7; stroke-linejoin: miter; stroke-linecap: square"/>
   </g>
   <g id="patch_27">
    <path d="M 119.871661 176.22 
L 205.738715 176.22 
" style="fill: none; stroke: #000000; stroke-width: 0.7; stroke-linejoin: miter; stroke-linecap: square"/>
   </g>
  </g>
  <g id="axes_3">
   <g id="patch_28">
    <path d="M 231.040873 176.22 
L 259.663224 176.22 
L 259.663224 35.64 
L 231.040873 35.64 
z
" style="fill: #ffffff"/>
   </g>
   <g id="line2d_16">
    <path d="M 231.040873 164.992118 
L 259.663224 164.992118 
" clip-path="url(#p213924712e)" style="fill: none; stroke: #eeeeee; stroke-width: 0.5; stroke-linecap: square"/>
   </g>
   <g id="matplotlib.axis_5">
    <g id="xtick_6">
     <g id="line2d_17">
      <g>
       <use xlink:href="#mae36b8f4bf" x="245.352049" y="176.22" style="stroke: #000000; stroke-width: 0.8"/>
      </g>
     </g>
     <g id="text_13">
      <text style="font-size: 7px; font-family: 'Arial'; text-anchor: middle" x="245.352049" y="186.730469" transform="rotate(-0 245.352049 186.730469)">Default</text>
     </g>
    </g>
   </g>
   <g id="matplotlib.axis_6">
    <g id="ytick_5">
     <g id="line2d_18">
      <path d="M 231.040873 164.992118 
L 259.663224 164.992118 
" clip-path="url(#p213924712e)" style="fill: none; stroke: #eeeeee; stroke-width: 0.5; stroke-linecap: square"/>
     </g>
     <g id="line2d_19">
      <g>
       <use xlink:href="#mc06d127018" x="231.040873" y="164.992118" style="stroke: #000000; stroke-width: 0.8"/>
      </g>
     </g>
     <g id="text_14">
      <text style="font-size: 7px; font-family: 'Arial'; text-anchor: end" x="225.540873" y="167.497352" transform="rotate(-0 225.540873 167.497352)">1</text>
     </g>
    </g>
    <g id="ytick_6">
     <g id="line2d_20">
      <path d="M 231.040873 92.508323 
L 259.663224 92.508323 
" clip-path="url(#p213924712e)" style="fill: none; stroke: #eeeeee; stroke-width: 0.5; stroke-linecap: square"/>
     </g>
     <g id="line2d_21">
      <g>
       <use xlink:href="#mc06d127018" x="231.040873" y="92.508323" style="stroke: #000000; stroke-width: 0.8"/>
      </g>
     </g>
     <g id="text_15">
      <text style="font-size: 7px; font-family: 'Arial'; text-anchor: end" x="225.540873" y="95.013557" transform="rotate(-0 225.540873 95.013557)">10</text>
     </g>
    </g>
   </g>
   <g id="patch_29">
    <path d="M 233.014828 72648.787603 
L 239.183439 72648.787603 
L 239.183439 129.702998 
L 233.014828 129.702998 
z
" clip-path="url(#p213924712e)" style="fill: #cfe8f7; stroke: #ffffff; stroke-width: 0.4; stroke-linejoin: miter"/>
   </g>
   <g id="patch_30">
    <path d="M 239.183439 72648.787603 
L 245.352049 72648.787603 
L 245.352049 127.227032 
L 239.183439 127.227032 
z
" clip-path="url(#p213924712e)" style="fill: #8fcdec; stroke: #ffffff; stroke-width: 0.4; stroke-linejoin: miter"/>
   </g>
   <g id="patch_31">
    <path d="M 245.352049 72648.787603 
L 251.520659 72648.787603 
L 251.520659 140.738342 
L 245.352049 140.738342 
z
" clip-path="url(#p213924712e)" style="fill: #4fa8dc; stroke: #ffffff; stroke-width: 0.4; stroke-linejoin: miter"/>
   </g>
   <g id="patch_32">
    <path d="M 251.520659 72648.787603 
L 257.689269 72648.787603 
L 257.689269 119.149068 
L 251.520659 119.149068 
z
" clip-path="url(#p213924712e)" style="fill: #2e73b0; stroke: #ffffff; stroke-width: 0.4; stroke-linejoin: miter"/>
   </g>
   <g id="text_16">
    <text style="font-weight: 700; font-size: 8.5px; font-family: 'Arial'; text-anchor: middle" x="245.352049" y="31.64" transform="rotate(-0 245.352049 31.64)">Alignment</text>
   </g>
   <g id="patch_33">
    <path d="M 231.040873 176.22 
L 231.040873 35.64 
" style="fill: none; stroke: #000000; stroke-width: 0.7; stroke-linejoin: miter; stroke-linecap: square"/>
   </g>
   <g id="patch_34">
    <path d="M 231.040873 176.22 
L 259.663224 176.22 
" style="fill: none; stroke: #000000; stroke-width: 0.7; stroke-linejoin: miter; stroke-linecap: square"/>
   </g>
  </g>
  <g id="axes_4">
   <g id="patch_35">
    <path d="M 284.965383 176.22 
L 370.832437 176.22 
L 370.832437 35.64 
L 284.965383 35.64 
z
" style="fill: #ffffff"/>
   </g>
   <g id="line2d_22">
    <path d="M 284.965383 164.992118 
L 370.832437 164.992118 
" clip-path="url(#pcc0588bbdb)" style="fill: none; stroke: #eeeeee; stroke-width: 0.5; stroke-linecap: square"/>
   </g>
   <g id="matplotlib.axis_7">
    <g id="xtick_7">
     <g id="line2d_23">
      <g>
       <use xlink:href="#mae36b8f4bf" x="301.462009" y="176.22" style="stroke: #000000; stroke-width: 0.8"/>
      </g>
     </g>
     <g id="text_17">
      <text style="font-size: 7px; font-family: 'Arial'; text-anchor: middle" x="301.462009" y="186.730469" transform="rotate(-0 301.462009 186.730469)">MA</text>
     </g>
    </g>
    <g id="xtick_8">
     <g id="line2d_24">
      <g>
       <use xlink:href="#mae36b8f4bf" x="327.89891" y="176.22" style="stroke: #000000; stroke-width: 0.8"/>
      </g>
     </g>
     <g id="text_18">
      <text style="font-size: 7px; font-family: 'Arial'; text-anchor: middle" x="327.89891" y="186.730469" transform="rotate(-0 327.89891 186.730469)">Gauss</text>
     </g>
    </g>
    <g id="xtick_9">
     <g id="line2d_25">
      <g>
       <use xlink:href="#mae36b8f4bf" x="354.33581" y="176.22" style="stroke: #000000; stroke-width: 0.8"/>
      </g>
     </g>
     <g id="text_19">
      <text style="font-size: 7px; font-family: 'Arial'; text-anchor: middle" x="354.33581" y="186.730469" transform="rotate(-0 354.33581 186.730469)">SG</text>
     </g>
    </g>
   </g>
   <g id="matplotlib.axis_8">
    <g id="ytick_7">
     <g id="line2d_26">
      <path d="M 284.965383 164.992118 
L 370.832437 164.992118 
" clip-path="url(#pcc0588bbdb)" style="fill: none; stroke: #eeeeee; stroke-width: 0.5; stroke-linecap: square"/>
     </g>
     <g id="line2d_27">
      <g>
       <use xlink:href="#mc06d127018" x="284.965383" y="164.992118" style="stroke: #000000; stroke-width: 0.8"/>
      </g>
     </g>
     <g id="text_20">
      <text style="font-size: 7px; font-family: 'Arial'; text-anchor: end" x="279.465383" y="167.497352" transform="rotate(-0 279.465383 167.497352)">1</text>
     </g>
    </g>
    <g id="ytick_8">
     <g id="line2d_28">
      <path d="M 284.965383 92.508323 
L 370.832437 92.508323 
" clip-path="url(#pcc0588bbdb)" style="fill: none; stroke: #eeeeee; stroke-width: 0.5; stroke-linecap: square"/>
     </g>
     <g id="line2d_29">
      <g>
       <use xlink:href="#mc06d127018" x="284.965383" y="92.508323" style="stroke: #000000; stroke-width: 0.8"/>
      </g>
     </g>
     <g id="text_21">
      <text style="font-size: 7px; font-family: 'Arial'; text-anchor: end" x="279.465383" y="95.013557" transform="rotate(-0 279.465383 95.013557)">10</text>
     </g>
    </g>
   </g>
   <g id="patch_36">
    <path d="M 290.887249 72648.787603 
L 296.174629 72648.787603 
L 296.174629 157.554728 
L 290.887249 157.554728 
z
" clip-path="url(#pcc0588bbdb)" style="fill: #cfe8f7; stroke: #ffffff; stroke-width: 0.4; stroke-linejoin: miter"/>
   </g>
   <g id="patch_37">
    <path d="M 317.324149 72648.787603 
L 322.61153 72648.787603 
L 322.61153 154.432051 
L 317.324149 154.432051 
z
" clip-path="url(#pcc0588bbdb)" style="fill: #cfe8f7; stroke: #ffffff; stroke-width: 0.4; stroke-linejoin: miter"/>
   </g>
   <g id="patch_38">
    <path d="M 343.76105 72648.787603 
L 349.04843 72648.787603 
L 349.04843 151.661203 
L 343.76105 151.661203 
z
" clip-path="url(#pcc0588bbdb)" style="fill: #cfe8f7; stroke: #ffffff; stroke-width: 0.4; stroke-linejoin: miter"/>
   </g>
   <g id="patch_39">
    <path d="M 296.174629 72648.787603 
L 301.462009 72648.787603 
L 301.462009 131.441005 
L 296.174629 131.441005 
z
" clip-path="url(#pcc0588bbdb)" style="fill: #8fcdec; stroke: #ffffff; stroke-width: 0.4; stroke-linejoin: miter"/>
   </g>
   <g id="patch_40">
    <path d="M 322.61153 72648.787603 
L 327.89891 72648.787603 
L 327.89891 127.206594 
L 322.61153 127.206594 
z
" clip-path="url(#pcc0588bbdb)" style="fill: #8fcdec; stroke: #ffffff; stroke-width: 0.4; stroke-linejoin: miter"/>
   </g>
   <g id="patch_41">
    <path d="M 349.04843 72648.787603 
L 354.33581 72648.787603 
L 354.33581 126.331461 
L 349.04843 126.331461 
z
" clip-path="url(#pcc0588bbdb)" style="fill: #8fcdec; stroke: #ffffff; stroke-width: 0.4; stroke-linejoin: miter"/>
   </g>
   <g id="patch_42">
    <path d="M 301.462009 72648.787603 
L 306.749389 72648.787603 
L 306.749389 55.144208 
L 301.462009 55.144208 
z
" clip-path="url(#pcc0588bbdb)" style="fill: #4fa8dc; stroke: #ffffff; stroke-width: 0.4; stroke-linejoin: miter"/>
   </g>
   <g id="patch_43">
    <path d="M 327.89891 72648.787603 
L 333.18629 72648.787603 
L 333.18629 51.788733 
L 327.89891 51.788733 
z
" clip-path="url(#pcc0588bbdb)" style="fill: #4fa8dc; stroke: #ffffff; stroke-width: 0.4; stroke-linejoin: miter"/>
   </g>
   <g id="patch_44">
    <path d="M 354.33581 72648.787603 
L 359.623191 72648.787603 
L 359.623191 57.463527 
L 354.33581 57.463527 
z
" clip-path="url(#pcc0588bbdb)" style="fill: #4fa8dc; stroke: #ffffff; stroke-width: 0.4; stroke-linejoin: miter"/>
   </g>
   <g id="patch_45">
    <path d="M 306.749389 72648.787603 
L 312.036769 72648.787603 
L 312.036769 133.55028 
L 306.749389 133.55028 
z
" clip-path="url(#pcc0588bbdb)" style="fill: #2e73b0; stroke: #ffffff; stroke-width: 0.4; stroke-linejoin: miter"/>
   </g>
   <g id="patch_46">
    <path d="M 333.18629 72648.787603 
L 338.47367 72648.787603 
L 338.47367 128.775939 
L 333.18629 128.775939 
z
" clip-path="url(#pcc0588bbdb)" style="fill: #2e73b0; stroke: #ffffff; stroke-width: 0.4; stroke-linejoin: miter"/>
   </g>
   <g id="patch_47">
    <path d="M 359.623191 72648.787603 
L 364.910571 72648.787603 
L 364.910571 129.885082 
L 359.623191 129.885082 
z
" clip-path="url(#pcc0588bbdb)" style="fill: #2e73b0; stroke: #ffffff; stroke-width: 0.4; stroke-linejoin: miter"/>
   </g>
   <g id="text_22">
    <text style="font-weight: 700; font-size: 8.5px; font-family: 'Arial'; text-anchor: middle" x="327.89891" y="31.64" transform="rotate(-0 327.89891 31.64)">Denoising</text>
   </g>
   <g id="patch_48">
    <path d="M 284.965383 176.22 
L 284.965383 35.64 
" style="fill: none; stroke: #000000; stroke-width: 0.7; stroke-linejoin: miter; stroke-linecap: square"/>
   </g>
   <g id="patch_49">
    <path d="M 284.965383 176.22 
L 370.832437 176.22 
" style="fill: none; stroke: #000000; stroke-width: 0.7; stroke-linejoin: miter; stroke-linecap: square"/>
   </g>
  </g>
  <g id="axes_5">
   <g id="patch_50">
    <path d="M 396.134595 176.22 
L 510.624 176.22 
L 510.624 35.64 
L 396.134595 35.64 
z
" style="fill: #ffffff"/>
   </g>
   <g id="line2d_30">
    <path d="M 396.134595 164.992118 
L 510.624 164.992118 
" clip-path="url(#p6ce4012634)" style="fill: none; stroke: #eeeeee; stroke-width: 0.5; stroke-linecap: square"/>
   </g>
   <g id="matplotlib.axis_9">
    <g id="xtick_10">
     <g id="line2d_31">
      <g>
       <use xlink:href="#mae36b8f4bf" x="414.419654" y="176.22" style="stroke: #000000; stroke-width: 0.8"/>
      </g>
     </g>
     <g id="text_23">
      <text style="font-size: 7px; font-family: 'Arial'; text-anchor: middle" x="414.419654" y="186.730469" transform="rotate(-0 414.419654 186.730469)">Quantile</text>
     </g>
    </g>
    <g id="xtick_11">
     <g id="line2d_32">
      <g>
       <use xlink:href="#mae36b8f4bf" x="440.39275" y="176.22" style="stroke: #000000; stroke-width: 0.8"/>
      </g>
     </g>
     <g id="text_24">
      <text style="font-size: 7px; font-family: 'Arial'; text-anchor: middle" x="440.39275" y="186.730469" transform="rotate(-0 440.39275 186.730469)">Diff</text>
     </g>
    </g>
    <g id="xtick_12">
     <g id="line2d_33">
      <g>
       <use xlink:href="#mae36b8f4bf" x="466.365845" y="176.22" style="stroke: #000000; stroke-width: 0.8"/>
      </g>
     </g>
     <g id="text_25">
      <text style="font-size: 7px; font-family: 'Arial'; text-anchor: middle" x="466.365845" y="186.730469" transform="rotate(-0 466.365845 186.730469)">SD</text>
     </g>
    </g>
    <g id="xtick_13">
     <g id="line2d_34">
      <g>
       <use xlink:href="#mae36b8f4bf" x="492.338941" y="176.22" style="stroke: #000000; stroke-width: 0.8"/>
      </g>
     </g>
     <g id="text_26">
      <text style="font-size: 7px; font-family: 'Arial'; text-anchor: middle" x="492.338941" y="186.730469" transform="rotate(-0 492.338941 186.730469)">MAD</text>
     </g>
    </g>
   </g>
   <g id="matplotlib.axis_10">
    <g id="ytick_9">
     <g id="line2d_35">
      <path d="M 396.134595 164.992118 
L 510.624 164.992118 
" clip-path="url(#p6ce4012634)" style="fill: none; stroke: #eeeeee; stroke-width: 0.5; stroke-linecap: square"/>
     </g>
     <g id="line2d_36">
      <g>
       <use xlink:href="#mc06d127018" x="396.134595" y="164.992118" style="stroke: #000000; stroke-width: 0.8"/>
      </g>
     </g>
     <g id="text_27">
      <text style="font-size: 7px; font-family: 'Arial'; text-anchor: end" x="390.634595" y="167.497352" transform="rotate(-0 390.634595 167.497352)">1</text>
     </g>
    </g>
    <g id="ytick_10">
     <g id="line2d_37">
      <path d="M 396.134595 92.508323 
L 510.624 92.508323 
" clip-path="url(#p6ce4012634)" style="fill: none; stroke: #eeeeee; stroke-width: 0.5; stroke-linecap: square"/>
     </g>
     <g id="line2d_38">
      <g>
       <use xlink:href="#mc06d127018" x="396.134595" y="92.508323" style="stroke: #000000; stroke-width: 0.8"/>
      </g>
     </g>
     <g id="text_28">
      <text style="font-size: 7px; font-family: 'Arial'; text-anchor: end" x="390.634595" y="95.013557" transform="rotate(-0 390.634595 95.013557)">10</text>
     </g>
    </g>
   </g>
   <g id="patch_51">
    <path d="M 404.030416 72648.787603 
L 409.225035 72648.787603 
L 409.225035 123.965461 
L 404.030416 123.965461 
z
" clip-path="url(#p6ce4012634)" style="fill: #cfe8f7; stroke: #ffffff; stroke-width: 0.4; stroke-linejoin: miter"/>
   </g>
   <g id="patch_52">
    <path d="M 430.003512 72648.787603 
L 435.198131 72648.787603 
L 435.198131 133.614839 
L 430.003512 133.614839 
z
" clip-path="url(#p6ce4012634)" style="fill: #cfe8f7; stroke: #ffffff; stroke-width: 0.4; stroke-linejoin: miter"/>
   </g>
   <g id="patch_53">
    <path d="M 455.976607 72648.787603 
L 461.171226 72648.787603 
L 461.171226 126.927374 
L 455.976607 126.927374 
z
" clip-path="url(#p6ce4012634)" style="fill: #cfe8f7; stroke: #ffffff; stroke-width: 0.4; stroke-linejoin: miter"/>
   </g>
   <g id="patch_54">
    <path d="M 481.949703 72648.787603 
L 487.144322 72648.787603 
L 487.144322 133.88705 
L 481.949703 133.88705 
z
" clip-path="url(#p6ce4012634)" style="fill: #cfe8f7; stroke: #ffffff; stroke-width: 0.4; stroke-linejoin: miter"/>
   </g>
   <g id="patch_55">
    <path d="M 409.225035 72648.787603 
L 414.419654 72648.787603 
L 414.419654 139.948465 
L 409.225035 139.948465 
z
" clip-path="url(#p6ce4012634)" style="fill: #8fcdec; stroke: #ffffff; stroke-width: 0.4; stroke-linejoin: miter"/>
   </g>
   <g id="patch_56">
    <path d="M 435.198131 72648.787603 
L 440.39275 72648.787603 
L 440.39275 113.037636 
L 435.198131 113.037636 
z
" clip-path="url(#p6ce4012634)" style="fill: #8fcdec; stroke: #ffffff; stroke-width: 0.4; stroke-linejoin: miter"/>
   </g>
   <g id="patch_57">
    <path d="M 461.171226 72648.787603 
L 466.365845 72648.787603 
L 466.365845 112.411473 
L 461.171226 112.411473 
z
" clip-path="url(#p6ce4012634)" style="fill: #8fcdec; stroke: #ffffff; stroke-width: 0.4; stroke-linejoin: miter"/>
   </g>
   <g id="patch_58">
    <path d="M 487.144322 72648.787603 
L 492.338941 72648.787603 
L 492.338941 149.961183 
L 487.144322 149.961183 
z
" clip-path="url(#p6ce4012634)" style="fill: #8fcdec; stroke: #ffffff; stroke-width: 0.4; stroke-linejoin: miter"/>
   </g>
   <g id="patch_59">
    <path d="M 414.419654 72648.787603 
L 419.614273 72648.787603 
L 419.614273 138.59821 
L 414.419654 138.59821 
z
" clip-path="url(#p6ce4012634)" style="fill: #4fa8dc; stroke: #ffffff; stroke-width: 0.4; stroke-linejoin: miter"/>
   </g>
   <g id="patch_60">
    <path d="M 440.39275 72648.787603 
L 445.587369 72648.787603 
L 445.587369 111.637457 
L 440.39275 111.637457 
z
" clip-path="url(#p6ce4012634)" style="fill: #4fa8dc; stroke: #ffffff; stroke-width: 0.4; stroke-linejoin: miter"/>
   </g>
   <g id="patch_61">
    <path d="M 466.365845 72648.787603 
L 471.560464 72648.787603 
L 471.560464 104.4687 
L 466.365845 104.4687 
z
" clip-path="url(#p6ce4012634)" style="fill: #4fa8dc; stroke: #ffffff; stroke-width: 0.4; stroke-linejoin: miter"/>
   </g>
   <g id="patch_62">
    <path d="M 492.338941 72648.787603 
L 497.53356 72648.787603 
L 497.53356 144.789777 
L 492.338941 144.789777 
z
" clip-path="url(#p6ce4012634)" style="fill: #4fa8dc; stroke: #ffffff; stroke-width: 0.4; stroke-linejoin: miter"/>
   </g>
   <g id="patch_63">
    <path d="M 419.614273 72648.787603 
L 424.808892 72648.787603 
L 424.808892 130.047875 
L 419.614273 130.047875 
z
" clip-path="url(#p6ce4012634)" style="fill: #2e73b0; stroke: #ffffff; stroke-width: 0.4; stroke-linejoin: miter"/>
   </g>
   <g id="patch_64">
    <path d="M 445.587369 72648.787603 
L 450.781988 72648.787603 
L 450.781988 112.796627 
L 445.587369 112.796627 
z
" clip-path="url(#p6ce4012634)" style="fill: #2e73b0; stroke: #ffffff; stroke-width: 0.4; stroke-linejoin: miter"/>
   </g>
   <g id="patch_65">
    <path d="M 471.560464 72648.787603 
L 476.755083 72648.787603 
L 476.755083 102.942171 
L 471.560464 102.942171 
z
" clip-path="url(#p6ce4012634)" style="fill: #2e73b0; stroke: #ffffff; stroke-width: 0.4; stroke-linejoin: miter"/>
   </g>
   <g id="patch_66">
    <path d="M 497.53356 72648.787603 
L 502.728179 72648.787603 
L 502.728179 140.334962 
L 497.53356 140.334962 
z
" clip-path="url(#p6ce4012634)" style="fill: #2e73b0; stroke: #ffffff; stroke-width: 0.4; stroke-linejoin: miter"/>
   </g>
   <g id="text_29">
    <text style="font-weight: 700; font-size: 8.5px; font-family: 'Arial'; text-anchor: middle" x="453.379298" y="31.64" transform="rotate(-0 453.379298 31.64)">Peak Picking</text>
   </g>
   <g id="patch_67">
    <path d="M 396.134595 176.22 
L 396.134595 35.64 
" style="fill: none; stroke: #000000; stroke-width: 0.7; stroke-linejoin: miter; stroke-linecap: square"/>
   </g>
   <g id="patch_68">
    <path d="M 396.134595 176.22 
L 510.624 176.22 
" style="fill: none; stroke: #000000; stroke-width: 0.7; stroke-linejoin: miter; stroke-linecap: square"/>
   </g>
  </g>
  <g id="legend_1">
   <g id="patch_69">
    <path d="M 180.70875 11.93625 
L 189.50875 11.93625 
L 189.50875 6.33625 
L 180.70875 6.33625 
z
" style="fill: #cfe8f7; stroke: #ffffff; stroke-linejoin: miter"/>
   </g>
   <g id="text_30">
    <text style="font-size: 8px; font-family: 'Arial'; text-anchor: start" x="195.90875" y="11.93625" transform="rotate(-0 195.90875 11.93625)">Min</text>
   </g>
   <g id="patch_70">
    <path d="M 221.59875 11.93625 
L 230.39875 11.93625 
L 230.39875 6.33625 
L 221.59875 6.33625 
z
" style="fill: #8fcdec; stroke: #ffffff; stroke-linejoin: miter"/>
   </g>
   <g id="text_31">
    <text style="font-size: 8px; font-family: 'Arial'; text-anchor: start" x="236.79875" y="11.93625" transform="rotate(-0 236.79875 11.93625)">Mid</text>
   </g>
   <g id="patch_71">
    <path d="M 262.48875 11.93625 
L 271.28875 11.93625 
L 271.28875 6.33625 
L 262.48875 6.33625 
z
" style="fill: #4fa8dc; stroke: #ffffff; stroke-linejoin: miter"/>
   </g>
   <g id="text_32">
    <text style="font-size: 8px; font-family: 'Arial'; text-anchor: start" x="277.68875" y="11.93625" transform="rotate(-0 277.68875 11.93625)">Max</text>
   </g>
   <g id="patch_72">
    <path d="M 305.60125 11.93625 
L 314.40125 11.93625 
L 314.40125 6.33625 
L 305.60125 6.33625 
z
" style="fill: #2e73b0; stroke: #ffffff; stroke-linejoin: miter"/>
   </g>
   <g id="text_33">
    <text style="font-size: 8px; font-family: 'Arial'; text-anchor: start" x="320.80125" y="11.93625" transform="rotate(-0 320.80125 11.93625)">Ultra</text>
   </g>
  </g>
 </g>
 <defs>
  <clipPath id="p6754bcdef6">
   <rect x="37.3248" y="35.64" width="57.244702" height="140.58"/>
  </clipPath>
  <clipPath id="pe81bb18eee">
   <rect x="119.871661" y="35.64" width="85.867054" height="140.58"/>
  </clipPath>
  <clipPath id="p213924712e">
   <rect x="231.040873" y="35.64" width="28.622351" height="140.58"/>
  </clipPath>
  <clipPath id="pcc0588bbdb">
   <rect x="284.965383" y="35.64" width="85.867054" height="140.58"/>
  </clipPath>
  <clipPath id="p6ce4012634">
   <rect x="396.134595" y="35.64" width="114.489405" height="140.58"/>
  </clipPath>
 </defs>
</svg>
